<?xml version="1.0" encoding="UTF-8"?>
<svg version="1.1" xmlns="http://www.w3.org/2000/svg" width="102" height="104">
<path d="M0 0 C33.66 0 67.32 0 102 0 C102 34.32 102 68.64 102 104 C68.34 104 34.68 104 0 104 C0 69.68 0 35.36 0 0 Z " fill="#4486F3" transform="translate(0,0)"/>
<path d="M0 0 C14.52 0 29.04 0 44 0 C44 14.52 44 29.04 44 44 C19.25 43.505 19.25 43.505 -6 43 C-6 49.27 -6 55.54 -6 62 C3.24 62 12.48 62 22 62 C20.96626012 69.23617916 19.9890914 72.05098162 15 77 C6.36194932 83.37504699 -1.36355908 84.91739303 -12 84 C-20.61104915 82.03497861 -27.92534422 76.88716169 -32.63671875 69.3984375 C-37.30553881 60.32835154 -39.0726509 50.69260558 -35.9765625 40.6953125 C-31.91572074 31.87812569 -26.03423369 25.5896618 -17.1875 21.5 C-8.46431902 18.4705542 -0.40665345 19.22857729 7.94140625 22.9296875 C10 24 10 24 13 26 C16.76474126 25.94368977 18.73698306 23.57718353 21.26171875 21.00195312 C21.75285156 20.48568359 22.24398437 19.96941406 22.75 19.4375 C23.25660156 18.91736328 23.76320312 18.39722656 24.28515625 17.86132812 C25.53034405 16.58089916 26.76611502 15.29132446 28 14 C21.1420749 6.33128572 10.05899681 2.13569319 0 1 C0 0.67 0 0.34 0 0 Z " fill="#FDFDFD" transform="translate(58,0)"/>
<path d="M0 0 C9.36375 -0.04125 18.7275 -0.0825 28.375 -0.125 C31.31196777 -0.14320801 34.24893555 -0.16141602 37.27490234 -0.18017578 C39.62857888 -0.18602244 41.98225744 -0.19111759 44.3359375 -0.1953125 C45.53710205 -0.20554443 46.7382666 -0.21577637 47.97583008 -0.22631836 C57.89638088 -0.22835669 66.43386301 0.77765823 75.3125 5.3125 C76.46363281 5.88613281 77.61476563 6.45976563 78.80078125 7.05078125 C82.06219161 9.03789208 84.42666101 11.19491566 87 14 C84.95508106 16.20659628 82.89193564 18.38885045 80.8125 20.5625 C80.23435547 21.19091797 79.65621094 21.81933594 79.06054688 22.46679688 C77.44040915 24.14185452 75.90208785 25.65278361 74 27 C71.33203125 27.02734375 71.33203125 27.02734375 69 26 C68.29617187 25.690625 67.59234375 25.38125 66.8671875 25.0625 C65.88105469 24.5365625 65.88105469 24.5365625 64.875 24 C57.96582626 20.34378355 50.95364527 19.87286622 43.3046875 21.61328125 C34.94088331 24.58911754 28.24872138 30.01354896 23.9375 37.8125 C21.94687456 42.46809956 22.02840723 46.03707248 22.42993164 50.94677734 C23.2382165 61.26733071 23.2382165 61.26733071 20.54980469 65.02929688 C16.50856165 69.05154713 11.87992806 72.08947148 7 75 C11.61418649 87.49946293 21.02824852 93.79971244 32.5 99.484375 C35.99976622 100.99989876 39.31849478 102.04205732 43 103 C43 103.33 43 103.66 43 104 C28.81 104 14.62 104 0 104 C0 69.68 0 35.36 0 0 Z " fill="#FABC09" transform="translate(0,0)"/>
<path d="M0 0 C2.91796875 2.73046875 2.91796875 2.73046875 5 5 C2.95508106 7.20659628 0.89193564 9.38885045 -1.1875 11.5625 C-1.76564453 12.19091797 -2.34378906 12.81933594 -2.93945312 13.46679688 C-4.55959085 15.14185452 -6.09791215 16.65278361 -8 18 C-10.66796875 18.02734375 -10.66796875 18.02734375 -13 17 C-13.70382813 16.690625 -14.40765625 16.38125 -15.1328125 16.0625 C-15.79023437 15.711875 -16.44765625 15.36125 -17.125 15 C-24.03417374 11.34378355 -31.04635473 10.87286622 -38.6953125 12.61328125 C-46.78351242 15.49105771 -53.65470548 20.76668031 -57.5625 28.5 C-58.036875 29.655 -58.51125 30.81 -59 32 C-63.27423842 30.55705455 -66.27764818 28.4201517 -69.75 25.5625 C-70.71421875 24.78003906 -71.6784375 23.99757812 -72.671875 23.19140625 C-75 21 -75 21 -76 18 C-69.15540437 4.5261981 -56.4401776 -3.45339299 -42.52734375 -8.1796875 C-27.3443939 -11.71060607 -12.99490038 -7.91752782 0 0 Z " fill="#EB4537" transform="translate(82,9)"/>
<path d="M0 0 C1.10818396 1.66227594 2.20110159 3.33623673 3.2265625 5.05078125 C7.77068829 12.40007967 13.40118471 17.77951676 21.73828125 20.53125 C29.08761747 22.05442849 36.10355046 21.48213079 43.0625 18.75390625 C45.09189411 17.96424282 46.84121987 17.32482344 49 17 C50.73925781 17.84863281 50.73925781 17.84863281 52.453125 19.203125 C53.071875 19.68910156 53.690625 20.17507812 54.328125 20.67578125 C54.96234375 21.19527344 55.5965625 21.71476562 56.25 22.25 C56.8996875 22.75402344 57.549375 23.25804688 58.21875 23.77734375 C61.75537667 26.60813106 61.75537667 26.60813106 63 28 C63 28.99 63 29.98 63 31 C52.45369527 40.37449309 38.3565237 42.54126724 24.73828125 42.30859375 C11.90241033 41.2489973 -0.59987814 34.44483807 -9.30078125 25.05078125 C-14.91153009 18.27918782 -14.91153009 18.27918782 -16 15 C-14.79562025 11.9145529 -13.35346696 10.19719295 -10.7421875 8.203125 C-10.11699219 7.71972656 -9.49179688 7.23632812 -8.84765625 6.73828125 C-7.87119141 6.00158203 -7.87119141 6.00158203 -6.875 5.25 C-5.88693359 4.49009766 -5.88693359 4.49009766 -4.87890625 3.71484375 C-3.25785888 2.46969142 -1.62961787 1.23391431 0 0 Z " fill="#36A955" transform="translate(22,62)"/>
<path d="M0 0 C0.33 0 0.66 0 1 0 C1.3403125 1.85625 1.3403125 1.85625 1.6875 3.75 C4.58618647 16.55253192 10.85925635 28.57283757 22 36 C28.77483772 39.79134956 35.46711929 43.03991369 43 45 C43 45.33 43 45.66 43 46 C28.81 46 14.62 46 0 46 C0 30.82 0 15.64 0 0 Z " fill="#FDFDFB" transform="translate(0,58)"/>
<path d="M0 0 C14.19 0 28.38 0 43 0 C39.79948314 1.60025843 36.70146309 2.9016772 33.375 4.1875 C20.4445384 9.57387986 10.77844193 18.14794812 5 31 C3.53712069 34.96315997 2.22445528 38.95724542 1 43 C0.67 43 0.34 43 0 43 C0 28.81 0 14.62 0 0 Z " fill="#FEFDFC" transform="translate(0,0)"/>
<path d="M0 0 C0.33 0 0.66 0 1 0 C1 14.19 1 28.38 1 43 C-13.52 43 -28.04 43 -43 43 C-43 42.67 -43 42.34 -43 42 C-41.96101563 41.78085938 -40.92203125 41.56171875 -39.8515625 41.3359375 C-27.39571379 38.56597691 -17.11917593 34.37159248 -9 24 C-4.29134407 16.46187961 -1.75233029 8.66942356 0 0 Z " fill="#FAFCFC" transform="translate(101,61)"/>
</svg>
