<?xml version="1.0" encoding="UTF-8"?>
<svg version="1.1" xmlns="http://www.w3.org/2000/svg" width="141" height="141">
<path d="M0 0 C0.70068604 0.37116943 1.40137207 0.74233887 2.12329102 1.12475586 C5.05672122 2.80408341 6.9234221 3.97172779 8.32421875 7.10546875 C8.14974264 10.2410537 7.34967589 11.1914466 5.1875 13.4375 C4.54039063 14.11554687 3.89328125 14.79359375 3.2265625 15.4921875 C2.55367188 16.17539062 1.88078125 16.85859375 1.1875 17.5625 C0.57648438 18.24570312 -0.03453125 18.92890625 -0.6640625 19.6328125 C-1.24929687 20.26960938 -1.83453125 20.90640625 -2.4375 21.5625 C-2.96601562 22.14 -3.49453125 22.7175 -4.0390625 23.3125 C-6.4726171 25.02778077 -7.88677948 24.94874838 -10.8125 24.5625 C-13.12890625 23.50390625 -13.12890625 23.50390625 -15.375 22.125 C-23.18680623 17.3729307 -32.91396266 17.18433707 -41.73828125 19.24609375 C-44.23700414 20.18262908 -46.48814821 21.25428076 -48.8125 22.5625 C-49.53050781 22.95179687 -50.24851563 23.34109375 -50.98828125 23.7421875 C-57.76090884 28.05320092 -61.07275676 35.07806553 -63.453125 42.58203125 C-65.33980745 52.97929216 -62.98367021 61.76691306 -58 70.875 C-51.6485246 78.6782412 -44.50556279 82.81628822 -34.37890625 83.9453125 C-23.78495971 84.29341589 -14.72864451 81.94088488 -6.41015625 75.2109375 C-3.80397356 72.5219177 -2.83180502 70.16404441 -1.8125 66.5625 C-2.1425 65.5725 -2.4725 64.5825 -2.8125 63.5625 C-3.97036011 63.5939209 -3.97036011 63.5939209 -5.15161133 63.62597656 C-8.64260885 63.70902672 -12.1333988 63.76112594 -15.625 63.8125 C-16.83994141 63.84601563 -18.05488281 63.87953125 -19.30664062 63.9140625 C-21.05170898 63.93339844 -21.05170898 63.93339844 -22.83203125 63.953125 C-24.44235229 63.9845459 -24.44235229 63.9845459 -26.08520508 64.01660156 C-28.8125 63.5625 -28.8125 63.5625 -30.66137695 61.7565918 C-32.35867343 58.52146912 -32.20907084 55.75249667 -32.1875 52.125 C-32.19910156 50.17787109 -32.19910156 50.17787109 -32.2109375 48.19140625 C-31.78646389 44.32536723 -31.18017478 42.6003508 -28.8125 39.5625 C-26.421875 38.92758179 -26.421875 38.92758179 -23.5625 38.91552734 C-22.49128906 38.89976654 -21.42007813 38.88400574 -20.31640625 38.86776733 C-18.58197266 38.88294907 -18.58197266 38.88294907 -16.8125 38.8984375 C-15.03166016 38.89126205 -15.03166016 38.89126205 -13.21484375 38.88394165 C-10.70311154 38.88053704 -8.19133535 38.88977834 -5.6796875 38.91064453 C-1.82712332 38.93739845 2.02252684 38.91091171 5.875 38.87890625 C8.31250646 38.88221024 10.75001109 38.88861625 13.1875 38.8984375 C14.92193359 38.88325577 14.92193359 38.88325577 16.69140625 38.86776733 C17.76261719 38.88352814 18.83382812 38.89928894 19.9375 38.91552734 C20.88109375 38.91950531 21.8246875 38.92348328 22.796875 38.92758179 C25.1875 39.5625 25.1875 39.5625 26.98852539 41.91616821 C31.40323742 51.66015502 27.50130245 64.84201281 24.1875 74.5625 C18.68906796 88.80160061 8.73133734 98.78884894 -4.8125 105.5625 C-21.76335079 112.88797233 -37.64319298 113.09360124 -55 106.875 C-70.89311156 100.01147235 -81.78192731 86.9432178 -88.16796875 71.2265625 C-93.73258585 54.63315554 -92.42751397 38.29089273 -84.8125 22.5625 C-82.67892193 19.05596923 -80.34957332 15.78634261 -77.8125 12.5625 C-77.20535156 11.7375 -76.59820312 10.9125 -75.97265625 10.0625 C-69.06162081 2.06419497 -58.66800636 -3.10092743 -48.8125 -6.4375 C-48.10222656 -6.68242187 -47.39195313 -6.92734375 -46.66015625 -7.1796875 C-30.58786569 -11.68363073 -14.27627296 -7.69554248 0 0 Z " fill="#1C9F1E" transform="translate(101.8125,19.4375)"/>
<path d="M0 0 C0.70068604 0.37116943 1.40137207 0.74233887 2.12329102 1.12475586 C5.05672122 2.80408341 6.9234221 3.97172779 8.32421875 7.10546875 C8.14974264 10.2410537 7.34967589 11.1914466 5.1875 13.4375 C4.54039063 14.11554687 3.89328125 14.79359375 3.2265625 15.4921875 C2.55367188 16.17539062 1.88078125 16.85859375 1.1875 17.5625 C0.57648438 18.24570312 -0.03453125 18.92890625 -0.6640625 19.6328125 C-1.24929687 20.26960938 -1.83453125 20.90640625 -2.4375 21.5625 C-2.96601562 22.14 -3.49453125 22.7175 -4.0390625 23.3125 C-6.4726171 25.02778077 -7.88677948 24.94874838 -10.8125 24.5625 C-13.12890625 23.50390625 -13.12890625 23.50390625 -15.375 22.125 C-23.18680623 17.3729307 -32.91396266 17.18433707 -41.73828125 19.24609375 C-44.23700414 20.18262908 -46.48814821 21.25428076 -48.8125 22.5625 C-49.53050781 22.95179687 -50.24851563 23.34109375 -50.98828125 23.7421875 C-57.77656954 28.0631695 -61.02511349 35.0719055 -63.46484375 42.56640625 C-63.92204925 45.19148501 -63.94433944 47.71103976 -63.9375 50.375 C-63.94007812 51.37144531 -63.94265625 52.36789063 -63.9453125 53.39453125 C-63.80102684 56.83616872 -63.35010256 60.16195046 -62.8125 63.5625 C-69.67791113 68.7899704 -76.55345119 73.88811251 -83.8125 78.5625 C-91.18140528 69.78297571 -92.33598493 56.3399904 -91.59375 45.3125 C-90.03738851 32.86160811 -85.54541318 22.38866261 -77.8125 12.5625 C-77.20535156 11.7375 -76.59820312 10.9125 -75.97265625 10.0625 C-69.06162081 2.06419497 -58.66800636 -3.10092743 -48.8125 -6.4375 C-48.10222656 -6.68242187 -47.39195313 -6.92734375 -46.66015625 -7.1796875 C-30.58786569 -11.68363073 -14.27627296 -7.69554248 0 0 Z " fill="#FACE1F" transform="translate(101.8125,19.4375)"/>
<path d="M0 0 C0.94359375 -0.00397797 1.8871875 -0.00795593 2.859375 -0.01205444 C4.46619141 -0.03569565 4.46619141 -0.03569565 6.10546875 -0.05981445 C7.26175781 -0.0496933 8.41804688 -0.03957214 9.609375 -0.02914429 C11.39021484 -0.03631973 11.39021484 -0.03631973 13.20703125 -0.04364014 C15.71876346 -0.04704474 18.23053965 -0.03780345 20.7421875 -0.01693726 C24.59475168 0.00981666 28.44440184 -0.01667007 32.296875 -0.04867554 C34.73438146 -0.04537154 37.17188609 -0.03896553 39.609375 -0.02914429 C40.76566406 -0.03926544 41.92195313 -0.0493866 43.11328125 -0.05981445 C44.18449219 -0.04405365 45.25570312 -0.02829285 46.359375 -0.01205444 C47.30296875 -0.00807648 48.2465625 -0.00409851 49.21875 0 C51.609375 0.63491821 51.609375 0.63491821 53.41040039 2.98858643 C57.81517184 12.71063276 53.94590049 25.93554027 50.609375 35.63491821 C47.50428357 43.42001776 43.51698051 49.69235646 37.609375 55.63491821 C33.98768359 54.0839624 31.48419481 51.8662677 28.609375 49.19741821 C25.70320978 46.50832936 22.82421584 43.94930595 19.609375 41.63491821 C20.8052214 39.04391768 22.10059133 36.9612501 23.796875 34.63491821 C25.84848681 31.90375706 25.84848681 31.90375706 25.421875 29.44741821 C25.15375 28.84929321 24.885625 28.25116821 24.609375 27.63491821 C24.279375 26.64491821 23.949375 25.65491821 23.609375 24.63491821 C22.83746826 24.65586548 22.06556152 24.67681274 21.27026367 24.69839478 C17.77926615 24.78144493 14.2884762 24.83354415 10.796875 24.88491821 C9.58193359 24.91843384 8.36699219 24.95194946 7.11523438 24.98648071 C5.37016602 25.00581665 5.37016602 25.00581665 3.58984375 25.02554321 C1.97952271 25.05696411 1.97952271 25.05696411 0.33666992 25.08901978 C-2.390625 24.63491821 -2.390625 24.63491821 -4.23950195 22.82901001 C-5.93679843 19.59388733 -5.78719584 16.82491488 -5.765625 13.19741821 C-5.77335937 11.89933228 -5.78109375 10.60124634 -5.7890625 9.26382446 C-5.31156149 4.9148202 -4.61246997 1.22501069 0 0 Z " fill="#1471D7" transform="translate(75.390625,58.365081787109375)"/>
<path d="M0 0 C0 -0.66 0 -1.32 0 -2 C1.98 -2.66 3.96 -3.32 6 -4 C4.51629655 0.90623411 1.72998061 3.78715352 -1.8125 7.3125 C-2.59463867 8.13717773 -2.59463867 8.13717773 -3.39257812 8.97851562 C-5.69473196 11.29216586 -7.34945738 12.87301721 -10.6015625 13.5078125 C-13.3190929 12.93243961 -15.19780766 12.01421547 -17.5625 10.5625 C-25.37430623 5.8104307 -35.10146266 5.62183707 -43.92578125 7.68359375 C-53.12457008 11.1313513 -59.41960778 16.32368012 -64 25 C-67.58513106 23.37815499 -70.58992323 21.20743761 -73.75 18.875 C-74.73484375 18.15054688 -75.7196875 17.42609375 -76.734375 16.6796875 C-77.48203125 16.12539063 -78.2296875 15.57109375 -79 15 C-78 12 -78 12 -75.1875 10.5625 C-74.135625 10.046875 -73.08375 9.53125 -72 9 C-71.34 8.34 -70.68 7.68 -70 7 C-67.58194961 4.58194961 -65.07082897 3.47143888 -62 2 C-61.0409375 1.195625 -61.0409375 1.195625 -60.0625 0.375 C-57.17212348 -1.55191768 -54.40961589 -1.67215232 -51 -2 C-51 -2.66 -51 -3.32 -51 -4 C-35.79680618 -10.0122841 -13.76285926 -8.48439795 0 0 Z " fill="#EE371B" transform="translate(104,31)"/>
<path d="M0 0 C0.268125 0.56847656 0.53625 1.13695313 0.8125 1.72265625 C4.85760141 9.69310277 9.80415373 14.93784995 18.125 18.4375 C28.59482425 21.78726371 39.23327948 20.99119471 49 16 C54.32699667 12.84981592 57.73742754 9.93925271 60 4 C60.66 4 61.32 4 62 4 C61.2503615 7.96611069 59.44892807 10.23047319 56.9609375 13.31640625 C56.48527344 14.14978516 56.48527344 14.14978516 56 15 C57.11179163 18.33537489 58.47411298 19.63707344 61 22 C48.37511553 30.0584369 37.10592456 34.45083006 21.97900391 31.62207031 C18.19968037 30.72437331 14.53435518 29.6140222 11 28 C10.67 27.34 10.34 26.68 10 26 C8.9275 25.731875 7.855 25.46375 6.75 25.1875 C-0.64718577 22.84505784 -4.08378625 16.30807847 -8 10 C-8.33 9.34 -8.66 8.68 -9 8 C-9.598125 8.515625 -10.19625 9.03125 -10.8125 9.5625 C-11.534375 10.036875 -12.25625 10.51125 -13 11 C-13.99 10.67 -14.98 10.34 -16 10 C-13.71234889 8.32756577 -11.42026108 6.66193073 -9.125 5 C-8.47402344 4.52304688 -7.82304688 4.04609375 -7.15234375 3.5546875 C-2.2265625 0 -2.2265625 0 0 0 Z " fill="#3AD262" transform="translate(40,83)"/>
<path d="M0 0 C-3.09720845 0.87840996 -4.90645403 0.99435406 -8 0 C-8 -0.66 -8 -1.32 -8 -2 C-9.5159375 -1.938125 -9.5159375 -1.938125 -11.0625 -1.875 C-15.18076052 -2.00573843 -18.11830533 -2.73250786 -22 -4 C-22.99 -3.01 -23.98 -2.02 -25 -1 C-24.01 -0.01 -24.01 -0.01 -23 1 C-24.00160156 1.04898437 -25.00320312 1.09796875 -26.03515625 1.1484375 C-27.37762759 1.22354079 -28.7200743 1.29908526 -30.0625 1.375 C-31.37347656 1.44460937 -32.68445313 1.51421875 -34.03515625 1.5859375 C-37.91361252 1.99097825 -41.28010909 2.86422266 -45 4 C-46.58032556 4.26835717 -48.16360236 4.52024586 -49.75 4.75 C-59.02369972 6.55400238 -66.76214541 12.17041576 -74 18 C-74.99 18.78375 -75.98 19.5675 -77 20.375 C-77.66 20.91125 -78.32 21.4475 -79 22 C-78.67 23.32 -78.34 24.64 -78 26 C-79.52994792 27.171875 -81.05989583 28.34375 -82.58984375 29.515625 C-84.30373357 31.31971955 -84.46200158 32.5969404 -85 35 C-85.80449466 36.44545269 -86.66095268 37.86300412 -87.5625 39.25 C-88.01753906 39.95640625 -88.47257812 40.6628125 -88.94140625 41.390625 C-89.29074219 41.92171875 -89.64007813 42.4528125 -90 43 C-92.24748473 37.39533497 -88.87823753 31.21751684 -86.81640625 25.90234375 C-80.60757256 11.43487004 -68.98057028 1.2211847 -54.75 -4.9375 C-52.84473736 -5.65599957 -50.92870638 -6.34703824 -49 -7 C-48.28972656 -7.24492187 -47.57945313 -7.48984375 -46.84765625 -7.7421875 C-31.08793696 -12.15853878 -13.54707212 -8.74467089 0 0 Z " fill="#FEAB6B" transform="translate(102,20)"/>
<path d="M0 0 C1.07458969 -0.00637985 2.14917938 -0.0127597 3.2563324 -0.01933289 C4.42608109 -0.02044571 5.59582977 -0.02155853 6.80102539 -0.02270508 C7.99345352 -0.02603348 9.18588165 -0.02936188 10.41444397 -0.03279114 C12.94230767 -0.03786549 15.47017809 -0.04019931 17.99804688 -0.04003906 C21.87844818 -0.04222493 25.7585651 -0.06037389 29.63891602 -0.0793457 C32.08878483 -0.08227956 34.538655 -0.08426441 36.98852539 -0.08520508 C38.74011208 -0.09598335 38.74011208 -0.09598335 40.52708435 -0.10697937 C42.14369713 -0.10236443 42.14369713 -0.10236443 43.79296875 -0.09765625 C45.22073891 -0.09979378 45.22073891 -0.09979378 46.67735291 -0.10197449 C48.96118164 0.14526367 48.96118164 0.14526367 50.96118164 2.14526367 C50.58618164 4.27026367 50.58618164 4.27026367 49.96118164 6.14526367 C48.97118164 6.14526367 47.98118164 6.14526367 46.96118164 6.14526367 C46.30118164 7.13526367 45.64118164 8.12526367 44.96118164 9.14526367 C41.11099196 10.36111304 37.67940931 10.06654144 33.73461914 9.65698242 C25.44521703 8.9253062 17.15904786 9.10964631 8.84838867 9.24121094 C6.80264444 9.27138626 4.75707689 9.2891469 2.71118164 9.30541992 C0.90907227 9.33067749 0.90907227 9.33067749 -0.92944336 9.35644531 C-3.90774618 9.15416579 -5.54132224 8.7119943 -8.03881836 7.14526367 C-5.76579034 0.0231092 -5.76579034 0.0231092 0 0 Z " fill="#62D3FD" transform="translate(78.038818359375,58.854736328125)"/>
<path d="M0 0 C4.62 0.99 9.24 1.98 14 3 C14 3.66 14 4.32 14 5 C14.65226562 5.02578125 15.30453125 5.0515625 15.9765625 5.078125 C21.88074693 5.46128741 25.39666863 6.24465072 30 10 C29.67 10.99 29.34 11.98 29 13 C27.35 13.33 25.7 13.66 24 14 C24 14.66 24 15.32 24 16 C21.13124956 15.59017851 19.1880341 15.12157377 16.734375 13.53515625 C5.09325654 6.99949974 -14.31633157 9.59483111 -27 12 C-27 12.66 -27 13.32 -27 14 C-27.59167969 14.17015625 -28.18335937 14.3403125 -28.79296875 14.515625 C-33.68839882 16.0169967 -37.12039646 17.55146352 -41 21 C-41.86625 21.515625 -42.7325 22.03125 -43.625 22.5625 C-46.00148461 23.85086342 -46.00148461 23.85086342 -47.5 25.625 C-49.51536084 27.4724141 -51.33833049 27.64031493 -54 28 C-54.33 28.99 -54.66 29.98 -55 31 C-55.99 30.34 -56.98 29.68 -58 29 C-56.44643861 24.41483616 -52.77548404 22.25854973 -49 19.5625 C-48.32227539 19.07531494 -47.64455078 18.58812988 -46.94628906 18.08618164 C-36.87884945 10.9684301 -28.16616962 7.7373391 -15.88671875 6.6171875 C-15.17209473 6.5452417 -14.4574707 6.4732959 -13.72119141 6.39916992 C-12.31003576 6.26079942 -10.89668481 6.14288835 -9.48193359 6.0480957 C-7.22737838 5.87576509 -7.22737838 5.87576509 -4 5 C-2.68 3.35 -1.36 1.7 0 0 Z " fill="#FE8A58" transform="translate(80,15)"/>
<path d="M0 0 C0.66 0.99 1.32 1.98 2 3 C2.49757813 3.72316406 2.99515625 4.44632812 3.5078125 5.19140625 C4.30832031 6.36509766 4.30832031 6.36509766 5.125 7.5625 C5.66382813 8.34753906 6.20265625 9.13257812 6.7578125 9.94140625 C8 12 8 12 8 14 C11.84700632 16.08379509 15.90054429 17.49686624 20 19 C20 19.66 20 20.32 20 21 C20.66 21.12375 21.32 21.2475 22 21.375 C24.22599975 21.83874995 26.43307942 22.39533226 28.625 23 C33.07824466 24.12044777 37.4245481 24.43468658 42 24.625 C42.77472656 24.66367188 43.54945312 24.70234375 44.34765625 24.7421875 C46.23143415 24.83521357 48.11568256 24.91863175 50 25 C50 25.33 50 25.66 50 26 C46.85434954 26.08845016 43.70902625 26.14086835 40.5625 26.1875 C39.68400391 26.21263672 38.80550781 26.23777344 37.90039062 26.26367188 C31.71986094 26.33209102 26.72459913 25.32816113 21 23 C21.31638428 23.99229614 21.31638428 23.99229614 21.63916016 25.00463867 C22.1422526 26.58251953 22.64534505 28.16040039 23.1484375 29.73828125 C23.98831811 32.22724528 23.98831811 32.22724528 26 35 C19.48180123 33.10463724 13.82185199 30.4821006 8 27 C8 26.34 8 25.68 8 25 C7.34 25 6.68 25 6 25 C6 24.34 6 23.68 6 23 C5.01 23 4.02 23 3 23 C3 22.01 3 21.02 3 20 C1.68 20 0.36 20 -1 20 C-1 18.68 -1 17.36 -1 16 C-1.61875 15.87625 -2.2375 15.7525 -2.875 15.625 C-5 15 -5 15 -7 13 C-7.38133299 11.0085944 -7.71325582 9.00720923 -8 7 C-8.33 6.01 -8.66 5.02 -9 4 C-7.6078125 3.566875 -7.6078125 3.566875 -6.1875 3.125 C-2.90208333 2.1125 -2.90208333 2.1125 0 0 Z " fill="#23AB2D" transform="translate(31,90)"/>
<path d="M0 0 C0 -0.66 0 -1.32 0 -2 C1.98 -2.66 3.96 -3.32 6 -4 C4.51629655 0.90623411 1.72998061 3.78715352 -1.8125 7.3125 C-2.33392578 7.86228516 -2.85535156 8.41207031 -3.39257812 8.97851562 C-5.69473196 11.29216586 -7.34945738 12.87301721 -10.6015625 13.5078125 C-13.3190929 12.93243961 -15.19780766 12.01421547 -17.5625 10.5625 C-25.39766216 5.79622284 -34.84790122 5.99930501 -43.76171875 7.44921875 C-45.52703977 7.89609535 -47.26894329 8.43475699 -49 9 C-49 8.34 -49 7.68 -49 7 C-48.34 7 -47.68 7 -47 7 C-47 6.34 -47 5.68 -47 5 C-42.77084783 4.97091367 -38.54172148 4.95317208 -34.3125 4.9375 C-33.11431641 4.92912109 -31.91613281 4.92074219 -30.68164062 4.91210938 C-28.94624023 4.90727539 -28.94624023 4.90727539 -27.17578125 4.90234375 C-26.11270752 4.89710693 -25.04963379 4.89187012 -23.9543457 4.88647461 C-21.1865491 4.99283156 -18.69207103 5.37105212 -16 6 C-16.99 3.36 -17.98 0.72 -19 -2 C-29.58467895 -3.62841215 -42.0617611 -4.65854948 -52 0 C-52.33 -0.66 -52.66 -1.32 -53 -2 C-52.34 -2 -51.68 -2 -51 -2 C-51 -2.66 -51 -3.32 -51 -4 C-35.79680618 -10.0122841 -13.76285926 -8.48439795 0 0 Z " fill="#FA4C21" transform="translate(104,31)"/>
<path d="M0 0 C-3.09720845 0.87840996 -4.90645403 0.99435406 -8 0 C-8 -0.99 -8 -1.98 -8 -3 C-8.9590625 -3.185625 -8.9590625 -3.185625 -9.9375 -3.375 C-11.58233324 -3.71068025 -13.22615876 -4.06276864 -14.84375 -4.51171875 C-27.94775412 -7.95885416 -39.65872028 -5.81967137 -52 -1 C-52.99 -0.34 -53.98 0.32 -55 1 C-55.99 1 -56.98 1 -58 1 C-58.33 1.99 -58.66 2.98 -59 4 C-60.71484375 4.5625 -60.71484375 4.5625 -62.9375 5 C-71.49687142 7.54319981 -76.68766097 16.27468833 -82 23 C-82.53238281 23.65484375 -83.06476563 24.3096875 -83.61328125 24.984375 C-85.21562522 27.31341581 -86.18066254 29.61139149 -87.1875 32.25 C-87.53167969 33.14203125 -87.87585938 34.0340625 -88.23046875 34.953125 C-88.48441406 35.62859375 -88.73835938 36.3040625 -89 37 C-90 35 -90 35 -89.25 32.3125 C-86.38141553 24.71075114 -83.02225847 18.38175126 -78 12 C-77.39285156 11.175 -76.78570312 10.35 -76.16015625 9.5 C-69.24912081 1.50169497 -58.85550636 -3.66342743 -49 -7 C-48.28972656 -7.24492187 -47.57945313 -7.48984375 -46.84765625 -7.7421875 C-31.08793696 -12.15853878 -13.54707212 -8.74467089 0 0 Z " fill="#FEEACF" transform="translate(102,20)"/>
<path d="M0 0 C1.32 0 2.64 0 4 0 C3.5625 2.8125 3.5625 2.8125 2 6 C-1.32724776 7.83617196 -5.10495538 9.47452185 -8.90063477 8.52407837 C-12.40463823 7.64935091 -15.97734816 7.97857297 -19.5625 8.0859375 C-20.80495483 8.11779648 -20.80495483 8.11779648 -22.07250977 8.15029907 C-23.82087359 8.19647877 -25.56916687 8.24540011 -27.31738281 8.296875 C-29.99008956 8.37471138 -32.6629131 8.44189692 -35.3359375 8.5078125 C-37.03647577 8.55405064 -38.73699742 8.60090497 -40.4375 8.6484375 C-41.23551025 8.66828705 -42.03352051 8.6881366 -42.85571289 8.70858765 C-46.38200886 8.8178937 -49.60241037 9.0601646 -53 10 C-53 12.31 -53 14.62 -53 17 C-55 15 -55 15 -55.1953125 11.9609375 C-55.17210938 10.77757813 -55.14890625 9.59421875 -55.125 8.375 C-55.10695313 7.18648438 -55.08890625 5.99796875 -55.0703125 4.7734375 C-55.04710938 3.85820313 -55.02390625 2.94296875 -55 2 C-54.48373047 2.16371094 -53.96746094 2.32742187 -53.43554688 2.49609375 C-50.25793803 3.15353006 -47.27654434 3.09278268 -44.03125 3.0625 C-43.35509644 3.05871338 -42.67894287 3.05492676 -41.9822998 3.05102539 C-39.10726205 3.03482427 -36.23237033 3.00700993 -33.35742188 2.97949219 C-31.2486946 2.96106265 -29.1400345 2.94734034 -27.03125 2.9375 C-26.34450195 2.93427734 -25.65775391 2.93105469 -24.95019531 2.92773438 C-19.76735249 2.93268692 -14.67945942 3.28637354 -9.53320312 3.87890625 C-6.77972215 4.01052986 -4.63401517 3.8204677 -2 3 C-1.34 2.01 -0.68 1.02 0 0 Z " fill="#189CF0" transform="translate(125,64)"/>
<path d="M0 0 C0.91628174 -0.00942627 1.83256348 -0.01885254 2.77661133 -0.02856445 C7.31947821 -0.00640821 11.0084734 0.07978096 15.125 2.25 C12.01699002 3.14551294 9.14267544 3.42311189 5.9140625 3.53125 C4.91632813 3.56863281 3.91859375 3.60601563 2.890625 3.64453125 C1.33601563 3.69673828 1.33601563 3.69673828 -0.25 3.75 C-9.11193798 3.99834261 -9.11193798 3.99834261 -17.875 5.25 C-17.875 5.91 -17.875 6.57 -17.875 7.25 C-18.46667969 7.42015625 -19.05835937 7.5903125 -19.66796875 7.765625 C-24.56339882 9.2669967 -27.99539646 10.80146352 -31.875 14.25 C-32.74125 14.765625 -33.6075 15.28125 -34.5 15.8125 C-36.87648461 17.10086342 -36.87648461 17.10086342 -38.375 18.875 C-40.39036084 20.7224141 -42.21333049 20.89031493 -44.875 21.25 C-45.205 22.24 -45.535 23.23 -45.875 24.25 C-46.865 23.59 -47.855 22.93 -48.875 22.25 C-47.32143861 17.66483616 -43.65048404 15.50854973 -39.875 12.8125 C-39.19727539 12.32531494 -38.51955078 11.83812988 -37.82128906 11.33618164 C-25.44260844 2.58436623 -15.04854599 0.11960642 0 0 Z " fill="#FE692F" transform="translate(70.875,21.75)"/>
<path d="M0 0 C0.99 0.33 1.98 0.66 3 1 C3.061875 2.093125 3.12375 3.18625 3.1875 4.3125 C3.58444169 8.15327049 3.58444169 8.15327049 6.5625 9.6875 C7.7690625 10.3371875 7.7690625 10.3371875 9 11 C9 12.32 9 13.64 9 15 C10.32 15 11.64 15 13 15 C13 15.99 13 16.98 13 18 C13.99 18 14.98 18 16 18 C16 18.66 16 19.32 16 20 C16.66 20 17.32 20 18 20 C18.33 20.66 18.66 21.32 19 22 C20.74686611 23.01799137 20.74686611 23.01799137 22.8125 23.9375 C25.81046284 25.37458452 28.43119701 26.85933085 31 29 C30.505 30.485 30.505 30.485 30 32 C16.4011416 28.43308632 5.13001744 18.62861381 -2.1875 6.76171875 C-3 5 -3 5 -3 2 C-2.01 1.34 -1.02 0.68 0 0 Z " fill="#357C29" transform="translate(21,95)"/>
<path d="M0 0 C0.99 0.99 1.98 1.98 3 3 C-10.38005691 13.05146665 -25.71834156 20.82888717 -43 19 C-47.7005788 18.13489348 -52.35179846 17.11080777 -57 16 C-53.93312991 15.06173381 -51.54992204 14.98211667 -48.375 15.375 C-47.59898438 15.46523437 -46.82296875 15.55546875 -46.0234375 15.6484375 C-44 16 -44 16 -42 17 C-40.01844062 16.96293486 -38.03790241 16.84792662 -36.0625 16.6875 C-35.00160156 16.60886719 -33.94070312 16.53023437 -32.84765625 16.44921875 C-29.80619737 16.17288328 -29.80619737 16.17288328 -27 14 C-23.8125 13.875 -23.8125 13.875 -21 14 C-21 13.34 -21 12.68 -21 12 C-19.29027888 11.02780564 -17.58011603 10.05637571 -15.8671875 9.08984375 C-14.35239849 8.20568866 -12.88590784 7.23915657 -11.4375 6.25 C-8.46049241 4.72332944 -6.30044095 4.76973668 -3 5 C-3 4.34 -3 3.68 -3 3 C-2.34 3 -1.68 3 -1 3 C-0.67 2.01 -0.34 1.02 0 0 Z " fill="#1E8519" transform="translate(109,112)"/>
<path d="M0 0 C0 0.33 0 0.66 0 1 C-3.70484499 1.1481938 -6.59297661 1.13838795 -10.125 -0.0625 C-15.81038651 -1.91643038 -22.61003723 1.14734303 -28.29296875 2.62695312 C-31.27524772 3.38785234 -33.90862265 4 -37 4 C-37 3.34 -37 2.68 -37 2 C-37.9075 2.350625 -38.815 2.70125 -39.75 3.0625 C-42.87758436 3.96468779 -44.05208081 4.13381507 -47 3 C-32.04990196 -4.76426223 -15.70119837 -7.09086378 0 0 Z " fill="#FEB677" transform="translate(94,17)"/>
<path d="M0 0 C1.29550781 0.00644531 2.59101562 0.01289062 3.92578125 0.01953125 C5.28906519 0.03624057 6.65234644 0.05317044 8.015625 0.0703125 C9.39452485 0.0803491 10.77343165 0.08947377 12.15234375 0.09765625 C15.52361382 0.12123157 18.89453136 0.1541398 22.265625 0.1953125 C21.605625 0.5253125 20.945625 0.8553125 20.265625 1.1953125 C20.265625 1.8553125 20.265625 2.5153125 20.265625 3.1953125 C19.66234375 3.24429688 19.0590625 3.29328125 18.4375 3.34375 C17.63828125 3.41851562 16.8390625 3.49328125 16.015625 3.5703125 C14.83226562 3.67472656 14.83226562 3.67472656 13.625 3.78125 C11.26980942 4.05971959 11.26980942 4.05971959 9.44140625 5.22265625 C6.19403562 6.67435335 3.23538408 6.42079378 -0.296875 6.3828125 C-1.30524414 6.3818457 -1.30524414 6.3818457 -2.33398438 6.38085938 C-5.39850671 6.3534704 -7.8070911 6.1710738 -10.734375 5.1953125 C-10.734375 4.2053125 -10.734375 3.2153125 -10.734375 2.1953125 C-7.14172667 -0.05203678 -4.18295427 -0.03669258 0 0 Z " fill="#137DDF" transform="translate(82.734375,71.8046875)"/>
<path d="M0 0 C0.66 0 1.32 0 2 0 C1.01725104 4.95791332 -1.47305497 8.43764387 -5 12 C-8.1963446 14.03728673 -11.49651594 15.56751365 -15 17 C-16.14082031 17.54720703 -16.14082031 17.54720703 -17.3046875 18.10546875 C-26.48010557 21.15064373 -37.8355401 19.74104149 -46.39453125 15.64453125 C-50.56230144 13.01389969 -53.83384382 9.7528263 -57 6 C-56.67 5.34 -56.34 4.68 -56 4 C-55.21689453 4.79664062 -55.21689453 4.79664062 -54.41796875 5.609375 C-46.73878975 12.97923506 -39.67928323 16.12651687 -29 16.5 C-19.12137095 16.17575616 -10.09405052 13.09405052 -3 6 C-0.99409221 2.83324955 -0.99409221 2.83324955 0 0 Z " fill="#D2E9EF" transform="translate(100,87)"/>
<path d="M0 0 C1.32 0 2.64 0 4 0 C3.34 1.98 2.68 3.96 2 6 C-16.15 6 -34.3 6 -53 6 C-53 5.01 -53 4.02 -53 3 C-48.37760802 2.97497039 -43.75525692 2.95698679 -39.1328125 2.94506836 C-37.5657482 2.940091 -35.99868842 2.93330671 -34.43164062 2.92456055 C-26.06025137 2.87906387 -17.8202975 2.91504467 -9.48925781 3.88110352 C-6.75412968 4.01174371 -4.61721666 3.81322645 -2 3 C-1.34 2.01 -0.68 1.02 0 0 Z " fill="#2BAEF6" transform="translate(125,64)"/>
<path d="M0 0 C0.66 0 1.32 0 2 0 C2.22142255 1.95689659 2.4267568 3.91561952 2.625 5.875 C2.74101563 6.96554688 2.85703125 8.05609375 2.9765625 9.1796875 C2.98816406 10.57574219 2.98816406 10.57574219 3 12 C2.34 12.66 1.68 13.32 1 14 C0.67 12.02 0.34 10.04 0 8 C-10.23 7.67 -20.46 7.34 -31 7 C-31 6.01 -31 5.02 -31 4 C-29.12054688 4.03480469 -29.12054688 4.03480469 -27.203125 4.0703125 C-25.5520893 4.08907427 -23.90104715 4.10727403 -22.25 4.125 C-21.425 4.14175781 -20.6 4.15851563 -19.75 4.17578125 C-18.55117187 4.18544922 -18.55117187 4.18544922 -17.328125 4.1953125 C-16.22839355 4.21102295 -16.22839355 4.21102295 -15.10644531 4.22705078 C-12.69305338 3.96691465 -11.12717056 3.13331043 -9 2 C-6.640625 1.8046875 -6.640625 1.8046875 -4.25 1.875 C-3.45078125 1.89304687 -2.6515625 1.91109375 -1.828125 1.9296875 C-1.22484375 1.95289062 -0.6215625 1.97609375 0 2 C0 1.34 0 0.68 0 0 Z " fill="#106FD5" transform="translate(103,73)"/>
<path d="M0 0 C-3.09720845 0.87840996 -4.90645403 0.99435406 -8 0 C-8 -0.99 -8 -1.98 -8 -3 C-8.71027344 -3.13277344 -9.42054687 -3.26554687 -10.15234375 -3.40234375 C-13.00217724 -4.00045695 -15.76024998 -4.77329489 -18.5625 -5.5625 C-33.01288841 -9.17952974 -46.7065084 -6.25004599 -60 0 C-63.48655736 2.15175499 -66.77553612 4.47429127 -70 7 C-70.66 6.67 -71.32 6.34 -72 6 C-51.58100348 -11.49479455 -22.96768624 -14.82570223 0 0 Z " fill="#FEF8F0" transform="translate(102,20)"/>
<path d="M0 0 C4.145697 -0.0879568 8.29115012 -0.14071153 12.4375 -0.1875 C13.60216797 -0.21263672 14.76683594 -0.23777344 15.96679688 -0.26367188 C22.200938 -0.31635476 27.40900489 -0.01913606 33.21508789 2.3503418 C35.15326854 3.17101084 35.15326854 3.17101084 38 3 C38.9590625 2.2265625 38.9590625 2.2265625 39.9375 1.4375 C40.618125 0.963125 41.29875 0.48875 42 0 C44.12890625 0.41015625 44.12890625 0.41015625 46 1 C44.95408224 2.1815555 43.88746765 3.34481088 42.8125 4.5 C42.22082031 5.1496875 41.62914062 5.799375 41.01953125 6.46875 C39 8 39 8 36.546875 8.37109375 C33.66010451 7.95047535 31.91536211 7.08369187 29.4375 5.5625 C21.60233784 0.79622284 12.15209878 0.99930501 3.23828125 2.44921875 C1.47296023 2.89609535 -0.26894329 3.43475699 -2 4 C-2 3.34 -2 2.68 -2 2 C-1.34 2 -0.68 2 0 2 C0 1.34 0 0.68 0 0 Z " fill="#D8392E" transform="translate(57,36)"/>
<path d="M0 0 C4.39656173 -0.02465504 8.7930872 -0.04283842 13.18969727 -0.05493164 C14.68644918 -0.05997121 16.18319616 -0.06680287 17.67993164 -0.07543945 C19.82699807 -0.08752159 21.97399962 -0.09323191 24.12109375 -0.09765625 C26.06133423 -0.10551147 26.06133423 -0.10551147 28.04077148 -0.11352539 C31 0 31 0 32 1 C32.04092937 3.33297433 32.04241723 5.66705225 32 8 C30.35 7.34 28.7 6.68 27 6 C27 5.01 27 4.02 27 3 C18.42 3 9.84 3 1 3 C0.67 2.01 0.34 1.02 0 0 Z " fill="#1F60AF" transform="translate(72,80)"/>
<path d="M0 0 C0.33 0 0.66 0 1 0 C0.56952295 6.13429793 -0.5540447 9.88327849 -4 15 C-4.99 15.495 -4.99 15.495 -6 16 C-6.144375 16.721875 -6.28875 17.44375 -6.4375 18.1875 C-7.11142891 21.55714455 -8.2331651 24.05527516 -10 27 C-11.98 27.99 -11.98 27.99 -14 29 C-16.31 27.02 -18.62 25.04 -21 23 C-20.505 21.515 -20.505 21.515 -20 20 C-19.34 20 -18.68 20 -18 20 C-18 20.66 -18 21.32 -18 22 C-10.54142796 20.13535699 -7.17363832 15.15866143 -3 9 C-1.91477867 6.56255843 -1.45095513 4.64936141 -1 2 C-0.67 1.34 -0.34 0.68 0 0 Z " fill="#123E9B" transform="translate(125,85)"/>
<path d="M0 0 C-0.66 0 -1.32 0 -2 0 C-2 0.66 -2 1.32 -2 2 C-3.175625 2.28875 -4.35125 2.5775 -5.5625 2.875 C-8.28964847 3.54836999 -10.9379574 4.29109023 -13.625 5.125 C-17.59783677 6.15499472 -21.22661514 6.88669243 -25 5 C-27.36950521 4.61076473 -29.7457572 4.2619422 -32.125 3.9375 C-34.04699219 3.67259766 -34.04699219 3.67259766 -36.0078125 3.40234375 C-36.99523438 3.26957031 -37.98265625 3.13679688 -39 3 C-39 2.34 -39 1.68 -39 1 C-39.99 0.67 -40.98 0.34 -42 0 C-40.12508307 -0.02730462 -38.25004775 -0.04653244 -36.375 -0.0625 C-35.33085938 -0.07410156 -34.28671875 -0.08570312 -33.2109375 -0.09765625 C-30 0 -30 0 -27.0703125 0.4921875 C-23.51052756 1.080956 -20.10732139 1.16917011 -16.5 1.1875 C-14.59734375 1.20876953 -14.59734375 1.20876953 -12.65625 1.23046875 C-7.98424445 0.93597267 -4.45091862 -1.48363954 0 0 Z " fill="#1D7815" transform="translate(90,124)"/>
<path d="M0 0 C4.29 1.65 8.58 3.3 13 5 C13 6.32 13 7.64 13 9 C11.329375 9.680625 11.329375 9.680625 9.625 10.375 C6.03800992 11.72465986 6.03800992 11.72465986 4 14 C3.01 13.34 2.02 12.68 1 12 C0.27569212 8.00801307 0.21602175 4.06120884 0 0 Z " fill="#F8431E" transform="translate(90,27)"/>
<path d="M0 0 C1.65 1.32 3.3 2.64 5 4 C4.67 4.9075 4.34 5.815 4 6.75 C1.97617676 13.79749795 2.42200483 21.89902173 4 29 C3.01 29 2.02 29 1 29 C0.87625 27.96875 0.7525 26.9375 0.625 25.875 C0.15645043 22.10121999 0.15645043 22.10121999 -1.125 19.125 C-2.32015091 14.85660389 -1.68814664 11.32335606 -1 7 C-0.81152674 5.64596845 -0.62392396 4.29181522 -0.4375 2.9375 C-0.293125 1.968125 -0.14875 0.99875 0 0 Z " fill="#E2A92A" transform="translate(35,53)"/>
<path d="M0 0 C1.05058594 0.00902344 2.10117188 0.01804687 3.18359375 0.02734375 C4.36115234 0.04474609 4.36115234 0.04474609 5.5625 0.0625 C5.5625 0.3925 5.5625 0.7225 5.5625 1.0625 C4.9540625 1.07667969 4.345625 1.09085938 3.71875 1.10546875 C-2.47418892 1.44243749 -8.05036604 2.64790552 -13.9375 4.5 C-14.63166016 4.71744873 -15.32582031 4.93489746 -16.04101562 5.15893555 C-19.18525253 6.18528668 -21.66751605 7.21584403 -24.4375 9.0625 C-25.4275 9.0625 -26.4175 9.0625 -27.4375 9.0625 C-27.7675 10.0525 -28.0975 11.0425 -28.4375 12.0625 C-30.0875 12.3925 -31.7375 12.7225 -33.4375 13.0625 C-30.40150098 7.45335453 -27.59272788 5.72822189 -21.625 3.75 C-20.93857422 3.49927734 -20.25214844 3.24855469 -19.54492188 2.99023438 C-13.07885824 0.70845412 -6.85987294 -0.07707722 0 0 Z " fill="#FEDAA9" transform="translate(71.4375,11.9375)"/>
<path d="M0 0 C-2 2 -2 2 -4.9375 3.125 C-11.54248325 5.82515039 -17.18452382 10.6998013 -22.66796875 15.1796875 C-25.05286276 17.04126306 -27.1614159 18.00265964 -30 19 C-30.66 19.33 -31.32 19.66 -32 20 C-30.44625994 15.41430884 -26.77527671 13.2594558 -23 10.5625 C-21.98993896 9.83389771 -21.98993896 9.83389771 -20.95947266 9.09057617 C-7.59082009 -0.38619962 -7.59082009 -0.38619962 0 0 Z " fill="#FF8F51" transform="translate(54,24)"/>
<path d="M0 0 C0.66 0.33 1.32 0.66 2 1 C-10.85131615 9.20296775 -19.92161442 11.62972376 -35 11 C-35 10.67 -35 10.34 -35 10 C-26.585 9.505 -26.585 9.505 -18 9 C-17.67 8.01 -17.34 7.02 -17 6 C-14.63671875 4.8671875 -14.63671875 4.8671875 -11.6875 3.875 C-10.72199219 3.54242188 -9.75648437 3.20984375 -8.76171875 2.8671875 C-7.11094437 2.34883968 -5.44863108 1.86288198 -3.76953125 1.4453125 C-1.91060125 1.04505465 -1.91060125 1.04505465 0 0 Z " fill="#3DCC57" transform="translate(99,104)"/>
<path d="M0 0 C3 1 3 1 4.25 3.375 C5 6 5 6 4 9 C2.70644173 10.37195574 1.37701298 11.71182656 0 13 C-2.475 12.01 -2.475 12.01 -5 11 C-5 6.86356447 -4.84767359 6.30197567 -2.5 3.25 C-2.0359375 2.63640625 -1.571875 2.0228125 -1.09375 1.390625 C-0.55234375 0.70226562 -0.55234375 0.70226562 0 0 Z " fill="#2B90E4" transform="translate(101,90)"/>
<path d="M0 0 C0.99 0.33 1.98 0.66 3 1 C3.061875 2.093125 3.12375 3.18625 3.1875 4.3125 C3.6132233 8.14332716 3.6132233 8.14332716 6.5625 9.9375 C7.366875 10.288125 8.17125 10.63875 9 11 C8.67 11.99 8.34 12.98 8 14 C7.34 13.67 6.68 13.34 6 13 C6.33 14.32 6.66 15.64 7 17 C2.38496316 13.83540331 -0.58469653 10.00533102 -3 5 C-3 4.01 -3 3.02 -3 2 C-2.01 1.34 -1.02 0.68 0 0 Z " fill="#248F25" transform="translate(21,95)"/>
<path d="M0 0 C0 0.33 0 0.66 0 1 C-0.74765625 1.12117187 -1.4953125 1.24234375 -2.265625 1.3671875 C-3.25046875 1.53476563 -4.2353125 1.70234375 -5.25 1.875 C-6.22453125 2.03742187 -7.1990625 2.19984375 -8.203125 2.3671875 C-10.93230317 2.86275882 -10.93230317 2.86275882 -12.95703125 4.00390625 C-15.73219001 5.35699513 -18.3859809 5.64269564 -21.4375 6.0625 C-25.32139358 6.60705518 -29.16209166 7.18937637 -33 8 C-30.31630267 4.57250641 -26.69291846 3.56206574 -22.6875 2.3125 C-21.98560547 2.09118408 -21.28371094 1.86986816 -20.56054688 1.6418457 C-13.63507427 -0.37808381 -7.2024657 -0.50642337 0 0 Z " fill="#FEC682" transform="translate(80,13)"/>
<path d="M0 0 C0.33 0 0.66 0 1 0 C0.68316154 13.85448163 -3.94590951 25.83568437 -12 37 C-13 34 -13 34 -12.125 32 C-11.75375 31.34 -11.3825 30.68 -11 30 C-10.67 29.01 -10.34 28.02 -10 27 C-9.54625 26.5875 -9.0925 26.175 -8.625 25.75 C-4.46450643 21.26946846 -3.78712693 16.1179867 -3.31640625 10.2890625 C-2.80618127 6.59780526 -1.43334499 3.42756411 0 0 Z " fill="#5D7CB5" transform="translate(129,73)"/>
<path d="M0 0 C-3 1 -3 1 -6 0 C-7.62567079 -0.14715199 -9.25586857 -0.24721867 -10.88671875 -0.31640625 C-11.82451172 -0.35830078 -12.76230469 -0.40019531 -13.72851562 -0.44335938 C-14.70498047 -0.48267578 -15.68144531 -0.52199219 -16.6875 -0.5625 C-17.67556641 -0.60568359 -18.66363281 -0.64886719 -19.68164062 -0.69335938 C-22.12095546 -0.79941654 -24.56037113 -0.90147714 -27 -1 C-20.11777867 -8.38567752 -7.94126954 -3.97063477 0 0 Z " fill="#DA3525" transform="translate(89,37)"/>
<path d="M0 0 C1.65 0.99 3.3 1.98 5 3 C4.21625 3.721875 3.4325 4.44375 2.625 5.1875 C0.0312889 7.96647618 -0.70912291 9.53076782 -2 13 C-3.59100609 15.71585753 -5.28454188 18.36133731 -7 21 C-7.79856676 18.69132303 -8.15765061 17.44453805 -7.328125 15.10546875 C-6.97234375 14.47253906 -6.6165625 13.83960938 -6.25 13.1875 C-4.81623834 10.53330453 -3.48013803 7.90758018 -2.3125 5.125 C-1.58675289 3.39703069 -0.83816309 1.67632617 0 0 Z " fill="#FEF25C" transform="translate(19,42)"/>
<path d="M0 0 C0.33 0 0.66 0 1 0 C1 1.98 1 3.96 1 6 C1.50756836 5.83701416 2.01513672 5.67402832 2.53808594 5.50610352 C5.85383538 4.82447434 9.00584608 4.88891209 12.390625 4.90234375 C13.44754547 4.90446617 13.44754547 4.90446617 14.52581787 4.90663147 C16.76725584 4.91221067 19.00859243 4.92475927 21.25 4.9375 C22.77343605 4.94251769 24.29687368 4.94708013 25.8203125 4.95117188 C29.54690772 4.96217326 33.27344396 4.97942354 37 5 C37 5.33 37 5.66 37 6 C36.08186523 6.02505615 35.16373047 6.0501123 34.21777344 6.07592773 C30.80342975 6.1712027 27.38924797 6.27042778 23.97509766 6.37231445 C22.4989061 6.41556035 21.02266785 6.45724256 19.54638672 6.49731445 C17.42140652 6.55526846 15.29665907 6.61888946 13.171875 6.68359375 C11.8940918 6.72025146 10.61630859 6.75690918 9.29980469 6.79467773 C6.68090127 6.95763259 4.48983284 7.22946803 2 8 C2 10.31 2 12.62 2 15 C0 13 0 13 -0.1953125 9.9609375 C-0.17210938 8.77757813 -0.14890625 7.59421875 -0.125 6.375 C-0.10695313 5.18648438 -0.08890625 3.99796875 -0.0703125 2.7734375 C-0.04710938 1.85820313 -0.02390625 0.94296875 0 0 Z " fill="#2A94E2" transform="translate(70,66)"/>
<path d="M0 0 C0.94875 0.886875 1.8975 1.77375 2.875 2.6875 C7.15594069 6.36806486 11.86418176 8.72108387 17 11 C17.76441406 11.36351563 18.52882813 11.72703125 19.31640625 12.1015625 C22.78917973 13.26420864 26.18490342 13.45837355 29.8125 13.625 C30.85180664 13.68300781 30.85180664 13.68300781 31.91210938 13.7421875 C33.60767015 13.83573568 35.30379712 13.91892364 37 14 C37 14.33 37 14.66 37 15 C25.31113822 15.6232213 15.06089232 15.74315192 5.48828125 7.95703125 C3.49667141 6.04883962 1.6554845 4.20568964 0 2 C0 1.34 0 0.68 0 0 Z " fill="#AEEECD" transform="translate(43,91)"/>
<path d="M0 0 C6.96050253 0.38669459 11.9394075 2.63438409 18 6 C18 5.34 18 4.68 18 4 C19.98 3.34 21.96 2.68 24 2 C22.64978174 6.41889613 20.73884332 8.34345343 17 11 C17 9.68 17 8.36 17 7 C16.236875 6.938125 15.47375 6.87625 14.6875 6.8125 C9.43478486 5.65512209 4.8278497 3.32802005 0 1 C0 0.67 0 0.34 0 0 Z " fill="#FE6838" transform="translate(86,25)"/>
<path d="M0 0 C-0.33 0.99 -0.66 1.98 -1 3 C-13.43031925 5.60223506 -22.60356101 4.96244915 -35 2 C-31.93312991 1.06173381 -29.54992204 0.98211667 -26.375 1.375 C-25.59898438 1.46523437 -24.82296875 1.55546875 -24.0234375 1.6484375 C-22 2 -22 2 -20 3 C-18.01844062 2.96293486 -16.03790241 2.84792662 -14.0625 2.6875 C-13.00160156 2.60886719 -11.94070312 2.53023437 -10.84765625 2.44921875 C-6.60963941 1.78067014 -4.51459833 -0.24403234 0 0 Z " fill="#53833D" transform="translate(87,126)"/>
<path d="M0 0 C2.31 0.66 4.62 1.32 7 2 C7 2.99 7 3.98 7 5 C7.99 5 8.98 5 10 5 C10 5.66 10 6.32 10 7 C10.66 7 11.32 7 12 7 C12.33 7.66 12.66 8.32 13 9 C14.64363134 9.72159424 16.31050386 10.39351421 18 11 C18 11.33 18 11.66 18 12 C13.87853942 12.32325181 11.6324266 12.39022067 8.0625 10.1875 C6 8 6 8 6 5 C4.35 4.67 2.7 4.34 1 4 C0.67 2.68 0.34 1.36 0 0 Z " fill="#1E821C" transform="translate(27,108)"/>
<path d="M0 0 C0.99 0.33 1.98 0.66 3 1 C2.4375 2.875 2.4375 2.875 1 5 C-2.0625 6.0625 -2.0625 6.0625 -3.92578125 6.5 C-6.25310438 7.06101198 -8.48328767 7.79337086 -10.75 8.5625 C-11.48734375 8.81128906 -12.2246875 9.06007813 -12.984375 9.31640625 C-13.64953125 9.54199219 -14.3146875 9.76757812 -15 10 C-15.99 10.33 -16.98 10.66 -18 11 C-18.33 10.34 -18.66 9.68 -19 9 C-18.21496094 8.68546875 -17.42992188 8.3709375 -16.62109375 8.046875 C-9.59342609 5.21392422 -9.59342609 5.21392422 -2.9375 1.625 C-1.968125 1.08875 -0.99875 0.5525 0 0 Z " fill="#28BE38" transform="translate(100,105)"/>
<path d="M0 0 C2 3 2 3 2.375 6.0625 C3.05928097 10.37347013 4.44404856 13.8753157 6.16015625 17.86328125 C7 20 7 20 7 22 C7.99 22.33 8.98 22.66 10 23 C8.02 23.99 8.02 23.99 6 25 C1.95476269 16.5167839 -0.33707953 9.43822697 0 0 Z " fill="#E9B43D" transform="translate(11,73)"/>
<path d="M0 0 C0.66 0 1.32 0 2 0 C2.061875 0.78375 2.12375 1.5675 2.1875 2.375 C2.455625 3.24125 2.72375 4.1075 3 5 C5.47636012 6.37466625 5.47636012 6.37466625 8 7 C3.25 11.875 3.25 11.875 1 13 C-1.48887372 8.31506124 -0.85687773 5.0555786 0 0 Z " fill="#FDD539" transform="translate(31,75)"/>
<path d="M0 0 C9.9 0.66 19.8 1.32 30 2 C30 2.33 30 2.66 30 3 C20.1 3 10.2 3 0 3 C0 2.01 0 1.02 0 0 Z " fill="#0D69CA" transform="translate(72,77)"/>
<path d="M0 0 C2.475 0.495 2.475 0.495 5 1 C5 1.66 5 2.32 5 3 C5.66 3.12375 6.32 3.2475 7 3.375 C9.22599975 3.83874995 11.43307942 4.39533226 13.625 5 C18.07824466 6.12044777 22.4245481 6.43468658 27 6.625 C27.77472656 6.66367188 28.54945312 6.70234375 29.34765625 6.7421875 C31.23143415 6.83521357 33.11568256 6.91863175 35 7 C35 7.33 35 7.66 35 8 C31.85434954 8.08845016 28.70902625 8.14086835 25.5625 8.1875 C24.68400391 8.21263672 23.80550781 8.23777344 22.90039062 8.26367188 C14.13541268 8.36070115 6.97896497 6.36843459 0 1 C0 0.67 0 0.34 0 0 Z " fill="#2CC03C" transform="translate(46,108)"/>
<path d="M0 0 C0.99 0.99 1.98 1.98 3 3 C0.92167383 4.48666395 -1.16212086 5.96436044 -3.25 7.4375 C-4.12978516 8.06881836 -4.12978516 8.06881836 -5.02734375 8.71289062 C-10.44253178 12.51569121 -10.44253178 12.51569121 -14 13 C-14 12.34 -14 11.68 -14 11 C-12.35 10.67 -10.7 10.34 -9 10 C-8.67 8.68 -8.34 7.36 -8 6 C-6.35 5.67 -4.7 5.34 -3 5 C-3 4.34 -3 3.68 -3 3 C-2.34 3 -1.68 3 -1 3 C-0.67 2.01 -0.34 1.02 0 0 Z " fill="#3F8630" transform="translate(109,112)"/>
<path d="M0 0 C-6.34390467 2.79878147 -12.17362651 3.11769609 -19 3 C-19.33 2.01 -19.66 1.02 -20 0 C-17.41703983 -0.19522373 -14.83395921 -0.38144403 -12.25 -0.5625 C-11.52039063 -0.61857422 -10.79078125 -0.67464844 -10.0390625 -0.73242188 C-6.45046349 -0.97709908 -3.44972775 -0.99666259 0 0 Z " fill="#2FD75B" transform="translate(84,106)"/>
<path d="M0 0 C0.99 0.33 1.98 0.66 3 1 C-0.63 4.63 -4.26 8.26 -8 12 C-8.99 11.01 -9.98 10.02 -11 9 C-8.6227567 6.37252056 -6.02316819 4.81390092 -3 3 C-1.24850835 1.41754725 -1.24850835 1.41754725 0 0 Z " fill="#FE5120" transform="translate(36,36)"/>
<path d="M0 0 C3.07692308 5.41538462 3.07692308 5.41538462 2.6875 8.375 C2.460625 8.91125 2.23375 9.4475 2 10 C1.21625 9.175 0.4325 8.35 -0.375 7.5 C-2.63721264 4.77011494 -2.63721264 4.77011494 -5 5 C-5.99 5 -6.98 5 -8 5 C-2.25 0 -2.25 0 0 0 Z " fill="#41D57C" transform="translate(40,83)"/>
<path d="M0 0 C-0.66 0 -1.32 0 -2 0 C-2 0.66 -2 1.32 -2 2 C-9.6091761 4.2545707 -17.21792944 5.07521882 -25 3 C-24.67 2.34 -24.34 1.68 -24 1 C-22.98679687 1.02320312 -21.97359375 1.04640625 -20.9296875 1.0703125 C-19.57813242 1.0890841 -18.22656931 1.1072828 -16.875 1.125 C-15.87726563 1.15013672 -15.87726563 1.15013672 -14.859375 1.17578125 C-9.67426386 1.22661567 -4.75473957 -1.58491319 0 0 Z " fill="#178412" transform="translate(90,124)"/>
<path d="M0 0 C7.01467689 -0.79712237 12.8257944 1.79555119 19 5 C20.859375 6.66796875 20.859375 6.66796875 22 8 C19.36 7.67 16.72 7.34 14 7 C14 6.01 14 5.02 14 4 C13.360625 3.87625 12.72125 3.7525 12.0625 3.625 C8.02988724 2.8020178 4.01576093 1.90114025 0 1 C0 0.67 0 0.34 0 0 Z " fill="#FEDDCF" transform="translate(80,13)"/>
<path d="M0 0 C-6.07439825 6.86214442 -6.07439825 6.86214442 -9.9375 7.4375 C-10.9584375 7.2209375 -10.9584375 7.2209375 -12 7 C-12.33 6.34 -12.66 5.68 -13 5 C-11.824375 4.87625 -11.824375 4.87625 -10.625 4.75 C-7.85955198 4.28474077 -7.85955198 4.28474077 -6.8125 2 C-6.544375 1.34 -6.27625 0.68 -6 0 C-3.50907189 -1.24546405 -2.58919267 -0.7767578 0 0 Z " fill="#DA4B37" transform="translate(103,37)"/>
<path d="M0 0 C-5.18644068 5.61864407 -5.18644068 5.61864407 -9 6 C-9.99 6 -10.98 6 -12 6 C-6 -0.15789474 -6 -0.15789474 0 0 Z " fill="#FD4B20" transform="translate(51,30)"/>
<path d="M0 0 C4.95 0 9.9 0 15 0 C10.5672804 3.3245397 9.32739604 3.57079243 4 3 C2.68 2.01 1.36 1.02 0 0 Z " fill="#20B226" transform="translate(63,116)"/>
<path d="M0 0 C0.99 0.33 1.98 0.66 3 1 C3 2.98 3 4.96 3 7 C2.34 7 1.68 7 1 7 C0.67 7.99 0.34 8.98 0 10 C-3 5.375 -3 5.375 -3 2 C-2.01 1.34 -1.02 0.68 0 0 Z " fill="#3A9935" transform="translate(21,95)"/>
<path d="M0 0 C0.33 0 0.66 0 1 0 C0.57136605 6.10803379 -0.39417507 9.99190982 -4 15 C-6.75 16.4375 -6.75 16.4375 -9 17 C-8.59007813 16.50371094 -8.18015625 16.00742188 -7.7578125 15.49609375 C-4.21891719 11.03437646 -2.22204778 7.55476262 -1 2 C-0.67 1.34 -0.34 0.68 0 0 Z " fill="#184FB2" transform="translate(125,85)"/>
<path d="M0 0 C6.27 0 12.54 0 19 0 C19 0.33 19 0.66 19 1 C18.154375 1.04898438 17.30875 1.09796875 16.4375 1.1484375 C10.05290815 1.56924014 4.14207405 2.19350763 -2 4 C-2 3.34 -2 2.68 -2 2 C-1.34 2 -0.68 2 0 2 C0 1.34 0 0.68 0 0 Z " fill="#D16B53" transform="translate(57,36)"/>
<path d="M0 0 C1.65 1.32 3.3 2.64 5 4 C3.515 9.445 3.515 9.445 2 15 C1.67 15 1.34 15 1 15 C1.01160156 14.39671875 1.02320313 13.7934375 1.03515625 13.171875 C1.04417969 12.37265625 1.05320313 11.5734375 1.0625 10.75 C1.07410156 9.96109375 1.08570313 9.1721875 1.09765625 8.359375 C1.00359686 6.0869002 0.59313074 4.18571012 0 2 C0 1.34 0 0.68 0 0 Z " fill="#E5AF37" transform="translate(35,53)"/>
<path d="M0 0 C0.33 0.66 0.66 1.32 1 2 C0.02433888 3.16959987 -0.955625 4.33561177 -1.9375 5.5 C-2.48277344 6.1496875 -3.02804688 6.799375 -3.58984375 7.46875 C-4.05519531 7.9740625 -4.52054687 8.479375 -5 9 C-5.33 9 -5.66 9 -6 9 C-5.67 6.69 -5.34 4.38 -5 2 C-3.35 1.34 -1.7 0.68 0 0 Z " fill="#E3583B" transform="translate(109,27)"/>
<path d="M0 0 C-2.64881193 2.64881193 -5.56592354 3.55407307 -9 5 C-9.99 5.66 -10.98 6.32 -12 7 C-14.1875 6.625 -14.1875 6.625 -16 6 C-14.27843904 4.98696238 -12.54738194 3.99005152 -10.8125 3 C-9.84957031 2.443125 -8.88664062 1.88625 -7.89453125 1.3125 C-4.95111257 -0.02216758 -3.18119943 -0.27915461 0 0 Z " fill="#FF9556" transform="translate(54,24)"/>
<path d="M0 0 C9.24 0 18.48 0 28 0 C28 0.33 28 0.66 28 1 C18.76 1 9.52 1 0 1 C0 0.67 0 0.34 0 0 Z " fill="#8EDEFE" transform="translate(98,57)"/>
<path d="M0 0 C-4.95 0.33 -9.9 0.66 -15 1 C-9.98106603 -4.01893397 -5.70148905 -3.8009927 0 0 Z " fill="#DC2D1A" transform="translate(77,35)"/>
<path d="M0 0 C2.475 0.99 2.475 0.99 5 2 C0.25 6.875 0.25 6.875 -2 8 C-1.125 2.25 -1.125 2.25 0 0 Z " fill="#F0D147" transform="translate(34,80)"/>
<path d="M0 0 C2.475 0.495 2.475 0.495 5 1 C5.33 1.99 5.66 2.98 6 4 C7.62882397 5.43948118 7.62882397 5.43948118 9.5625 6.6875 C10.20316406 7.12449219 10.84382813 7.56148438 11.50390625 8.01171875 C11.99761719 8.33785156 12.49132813 8.66398437 13 9 C12.01 9.495 12.01 9.495 11 10 C9.53737408 8.9015258 8.08004497 7.7959964 6.625 6.6875 C5.81289063 6.07261719 5.00078125 5.45773438 4.1640625 4.82421875 C2 3 2 3 0 0 Z " fill="#4F7F3E" transform="translate(28,112)"/>
<path d="M0 0 C0.99 0.33 1.98 0.66 3 1 C1.52307692 5.67692308 1.52307692 5.67692308 -1.125 7.3125 C-2.053125 7.6528125 -2.053125 7.6528125 -3 8 C-3.33 7.34 -3.66 6.68 -4 6 C-3.34 6 -2.68 6 -2 6 C-2 4.68 -2 3.36 -2 2 C-1.34 1.34 -0.68 0.68 0 0 Z " fill="#2F4985" transform="translate(114,106)"/>
<path d="M0 0 C8.25 0 16.5 0 25 0 C25 0.33 25 0.66 25 1 C16.75 1 8.5 1 0 1 C0 0.67 0 0.34 0 0 Z " fill="#062B97" transform="translate(73,84)"/>
<path d="M0 0 C-0.56545837 3.95820859 -1.80902348 6.6659053 -4 10 C-4.66 9.67 -5.32 9.34 -6 9 C-5.01 7.35 -4.02 5.7 -3 4 C-3.66 3.67 -4.32 3.34 -5 3 C-2.25 0 -2.25 0 0 0 Z " fill="#E14830" transform="translate(44,46)"/>
<path d="M0 0 C1.32 0.33 2.64 0.66 4 1 C-1.445 5.455 -1.445 5.455 -7 10 C-7 9.01 -7 8.02 -7 7 C-5.36739286 5.62517293 -3.69774938 4.29352333 -2 3 C-1.34 2.01 -0.68 1.02 0 0 Z " fill="#FF7F42" transform="translate(36,31)"/>
<path d="M0 0 C0.99 0.495 0.99 0.495 2 1 C2.6328125 3.06640625 2.6328125 3.06640625 3.125 5.5625 C3.29257812 6.38878906 3.46015625 7.21507813 3.6328125 8.06640625 C3.75398438 8.70449219 3.87515625 9.34257813 4 10 C3.01 10.33 2.02 10.66 1 11 C-0.28317892 7.15046324 -0.06643637 4.05261865 0 0 Z " fill="#F4C229" transform="translate(33,69)"/>
<path d="M0 0 C0.65234375 1.765625 0.65234375 1.765625 1 4 C0.00390625 5.921875 0.00390625 5.921875 -1.4375 7.75 C-2.14712891 8.67039062 -2.14712891 8.67039062 -2.87109375 9.609375 C-3.24363281 10.06828125 -3.61617188 10.5271875 -4 11 C-5 8 -5 8 -4.125 6 C-3.75375 5.34 -3.3825 4.68 -3 4 C-2.67 3.01 -2.34 2.02 -2 1 C-1.34 0.67 -0.68 0.34 0 0 Z " fill="#4D6498" transform="translate(121,99)"/>
<path d="M0 0 C1.9451 2.91765 2.45276317 4.62537285 3 8 C3.99 8.33 4.98 8.66 6 9 C4.02 9.99 4.02 9.99 2 11 C-0.32590854 7.36576791 -0.16265833 4.22911669 0 0 Z " fill="#DC9A27" transform="translate(15,87)"/>
<path d="M0 0 C-1.45124634 3.82601307 -3.35774704 5.22329124 -7 7 C-7.99 7 -8.98 7 -10 7 C-8.71372289 5.82739389 -7.42080217 4.6620717 -6.125 3.5 C-5.04605469 2.52546875 -5.04605469 2.52546875 -3.9453125 1.53125 C-2 0 -2 0 0 0 Z " fill="#FEC487" transform="translate(38,25)"/>
<path d="M0 0 C6.625 -0.125 6.625 -0.125 10 1 C10 1.99 10 2.98 10 4 C6.7 3.01 3.4 2.02 0 1 C0 0.67 0 0.34 0 0 Z " fill="#CF4F3B" transform="translate(76,36)"/>
<path d="M0 0 C0.66 0 1.32 0 2 0 C2 0.66 2 1.32 2 2 C3.32 2.33 4.64 2.66 6 3 C5.01 3.99 4.02 4.98 3 6 C1.68 5.01 0.36 4.02 -1 3 C-0.67 2.01 -0.34 1.02 0 0 Z " fill="#124AAA" transform="translate(105,105)"/>
<path d="M0 0 C0.66 0 1.32 0 2 0 C1.8125 1.8125 1.8125 1.8125 1 4 C-3.17857143 7 -3.17857143 7 -6 7 C-6 6.34 -6 5.68 -6 5 C-4.35 4.67 -2.7 4.34 -1 4 C-0.67 2.68 -0.34 1.36 0 0 Z " fill="#548C42" transform="translate(101,118)"/>
<path d="M0 0 C0.66 0.33 1.32 0.66 2 1 C1.67 2.32 1.34 3.64 1 5 C0.34 5 -0.32 5 -1 5 C-1 5.66 -1 6.32 -1 7 C-2.32 6.67 -3.64 6.34 -5 6 C-3.625 4.5 -3.625 4.5 -2 3 C-1.34 3 -0.68 3 0 3 C0 2.01 0 1.02 0 0 Z " fill="#1C8F21" transform="translate(107,110)"/>
<path d="M0 0 C0.59296875 0.20496094 1.1859375 0.40992187 1.796875 0.62109375 C0.51036794 1.31820106 -0.78253165 2.00352251 -2.078125 2.68359375 C-3.15707031 3.25787109 -3.15707031 3.25787109 -4.2578125 3.84375 C-4.89976563 4.10027344 -5.54171875 4.35679688 -6.203125 4.62109375 C-6.863125 4.29109375 -7.523125 3.96109375 -8.203125 3.62109375 C-2.74543269 -0.47217548 -2.74543269 -0.47217548 0 0 Z " fill="#BDEED5" transform="translate(91.203125,99.37890625)"/>
<path d="M0 0 C0.33 1.32 0.66 2.64 1 4 C-1.4375 6.75 -1.4375 6.75 -4 9 C-4.66 8.67 -5.32 8.34 -6 8 C-4.02 5.36 -2.04 2.72 0 0 Z " fill="#277CDB" transform="translate(101,90)"/>
<path d="M0 0 C2.97 0.495 2.97 0.495 6 1 C3.4345406 3.5654594 1.52313332 3.54046087 -2 4 C-1.34 2.68 -0.68 1.36 0 0 Z " fill="#3E802D" transform="translate(88,124)"/>
<path d="M0 0 C-0.75 1.9375 -0.75 1.9375 -2 4 C-4.125 4.75 -4.125 4.75 -6 5 C-3.74193548 0 -3.74193548 0 0 0 Z " fill="#23B52F" transform="translate(103,106)"/>
<path d="M0 0 C2.4375 0.6875 2.4375 0.6875 5 2 C5.8125 4.625 5.8125 4.625 6 7 C1.125 3.375 1.125 3.375 0 0 Z " fill="#4E873F" transform="translate(22,105)"/>
<path d="M0 0 C-0.66 1.32 -1.32 2.64 -2 4 C-2.99 4 -3.98 4 -5 4 C-5 3.01 -5 2.02 -5 1 C-3 0 -3 0 0 0 Z " fill="#135DC5" transform="translate(107,102)"/>
<path d="M0 0 C0.66 0 1.32 0 2 0 C3.06775224 1.96466413 4.06553465 3.96855359 5 6 C4.67 6.66 4.34 7.32 4 8 C0 3.375 0 3.375 0 0 Z " fill="#A7DBC2" transform="translate(38,83)"/>
<path d="M0 0 C2.9719385 1.12451727 5.33440687 2.22293791 8 4 C8 4.66 8 5.32 8 6 C5.33333333 4.66666667 2.66666667 3.33333333 0 2 C0 1.34 0 0.68 0 0 Z " fill="#FDD8D4" transform="translate(102,21)"/>
<path d="M0 0 C5.28 0 10.56 0 16 0 C16 0.33 16 0.66 16 1 C10.72 1 5.44 1 0 1 C0 0.67 0 0.34 0 0 Z " fill="#FEF5EC" transform="translate(63,9)"/>
<path d="M0 0 C4.95 0 9.9 0 15 0 C15 0.33 15 0.66 15 1 C10.05 1 5.1 1 0 1 C0 0.67 0 0.34 0 0 Z " fill="#D05840" transform="translate(63,38)"/>
<path d="M0 0 C4.62 0 9.24 0 14 0 C14 0.33 14 0.66 14 1 C9.38 1 4.76 1 0 1 C0 0.67 0 0.34 0 0 Z " fill="#CDF7E3" transform="translate(64,102)"/>
<path d="M0 0 C0.33 0 0.66 0 1 0 C1 4.62 1 9.24 1 14 C0.67 14 0.34 14 0 14 C0 9.38 0 4.76 0 0 Z " fill="#4E9DD9" transform="translate(68,64)"/>
<path d="M0 0 C0.33 0 0.66 0 1 0 C1 4.29 1 8.58 1 13 C0.67 13 0.34 13 0 13 C0 8.71 0 4.42 0 0 Z " fill="#3773C9" transform="translate(131,64)"/>
<path d="M0 0 C0.33 0 0.66 0 1 0 C1 3.96 1 7.92 1 12 C0.67 12 0.34 12 0 12 C0 8.04 0 4.08 0 0 Z " fill="#E2A421" transform="translate(38,64)"/>
<path d="M0 0 C2.31 0 4.62 0 7 0 C7 0.33 7 0.66 7 1 C4.69 1 2.38 1 0 1 C0 0.67 0 0.34 0 0 Z " fill="#5F8343" transform="translate(67,132)"/>
<path d="M0 0 C0.33 0 0.66 0 1 0 C1 2.31 1 4.62 1 7 C0.67 7 0.34 7 0 7 C0 4.69 0 2.38 0 0 Z " fill="#EFBC35" transform="translate(9,74)"/>
<path d="M0 0 C0.33 0 0.66 0 1 0 C1 2.31 1 4.62 1 7 C0.67 7 0.34 7 0 7 C0 4.69 0 2.38 0 0 Z " fill="#FDD82C" transform="translate(9,60)"/>
<path d="M0 0 C1.98 0 3.96 0 6 0 C6 0.33 6 0.66 6 1 C4.02 1 2.04 1 0 1 C0 0.67 0 0.34 0 0 Z " fill="#357223" transform="translate(75,131)"/>
<path d="M0 0 C1.98 0 3.96 0 6 0 C6 0.33 6 0.66 6 1 C4.02 1 2.04 1 0 1 C0 0.67 0 0.34 0 0 Z " fill="#3F752A" transform="translate(59,131)"/>
<path d="M0 0 C0.33 0 0.66 0 1 0 C1 1.65 1 3.3 1 5 C0.67 5 0.34 5 0 5 C0 3.35 0 1.7 0 0 Z " fill="#3F71C2" transform="translate(130,78)"/>
<path d="M0 0 C1.65 0 3.3 0 5 0 C5 0.33 5 0.66 5 1 C3.35 1 1.7 1 0 1 C0 0.67 0 0.34 0 0 Z " fill="#CC4231" transform="translate(91,45)"/>
<path d="M0 0 C1.65 0 3.3 0 5 0 C5 0.33 5 0.66 5 1 C3.35 1 1.7 1 0 1 C0 0.67 0 0.34 0 0 Z " fill="#FEF5E9" transform="translate(57,10)"/>
<path d="M0 0 C4 1 4 1 4 1 Z " fill="#356D25" transform="translate(55,130)"/>
<path d="M0 0 C4 1 4 1 4 1 Z " fill="#C6F6DC" transform="translate(78,101)"/>
<path d="M0 0 C1 4 1 4 1 4 Z " fill="#EAAD2C" transform="translate(10,81)"/>
<path d="M0 0 C1 4 1 4 1 4 Z " fill="#E4AE38" transform="translate(39,60)"/>
<path d="M0 0 C1 4 1 4 1 4 Z " fill="#FEF391" transform="translate(10,55)"/>
<path d="M0 0 C0.66 0.33 1.32 0.66 2 1 C1.01 1 0.02 1 -1 1 C-0.67 0.67 -0.34 0.34 0 0 Z " fill="#DC4331" transform="translate(48,45)"/>
<path d="M0 0 C4 1 4 1 4 1 Z " fill="#FEF1E9" transform="translate(80,10)"/>
<path d="M0 0 C3 1 3 1 3 1 Z " fill="#367723" transform="translate(82,130)"/>
<path d="M0 0 C3 1 3 1 3 1 Z " fill="#3C7A29" transform="translate(86,129)"/>
<path d="M0 0 C3 1 3 1 3 1 Z " fill="#2F6820" transform="translate(52,129)"/>
<path d="M0 0 C3 1 3 1 3 1 Z " fill="#377728" transform="translate(89,128)"/>
<path d="M0 0 C3 1 3 1 3 1 Z " fill="#BAF2D7" transform="translate(60,101)"/>
<path d="M0 0 C3 1 3 1 3 1 Z " fill="#B9F0D2" transform="translate(82,100)"/>
<path d="" fill="#3D65B1" transform="translate(0,0)"/>
<path d="" fill="#E2AA40" transform="translate(0,0)"/>
<path d="" fill="#3E6BB9" transform="translate(0,0)"/>
<path d="" fill="#DCA231" transform="translate(0,0)"/>
<path d="" fill="#A8DCFC" transform="translate(0,0)"/>
<path d="" fill="#E3AC34" transform="translate(0,0)"/>
<path d="M0 0 C3 1 3 1 3 1 Z " fill="#C6F0FE" transform="translate(73,57)"/>
<path d="" fill="#FEFCB0" transform="translate(0,0)"/>
<path d="M0 0 C3 1 3 1 3 1 Z " fill="#D53829" transform="translate(59,39)"/>
<path d="M0 0 C3 1 3 1 3 1 Z " fill="#FEF8EE" transform="translate(50,12)"/>
<path d="M0 0 C3 1 3 1 3 1 Z " fill="#FEE4D6" transform="translate(84,11)"/>
<path d="M0 0 C3 1 3 1 3 1 Z " fill="#FEF3E2" transform="translate(54,11)"/>
<path d="M0 0 C2 1 2 1 2 1 Z " fill="#4B7734" transform="translate(49,128)"/>
<path d="M0 0 C2 1 2 1 2 1 Z " fill="#397926" transform="translate(92,127)"/>
<path d="M0 0 C2 1 2 1 2 1 Z " fill="#29691B" transform="translate(47,127)"/>
<path d="M0 0 C2 1 2 1 2 1 Z " fill="#56843E" transform="translate(97,125)"/>
<path d="M0 0 C2 1 2 1 2 1 Z " fill="#2C5B20" transform="translate(39,123)"/>
<path d="M0 0 C2 1 2 1 2 1 Z " fill="#327824" transform="translate(102,122)"/>
<path d="M0 0 C2 1 2 1 2 1 Z " fill="#51853A" transform="translate(108,118)"/>
<path d="" fill="#343773" transform="translate(0,0)"/>
<path d="" fill="#367D2B" transform="translate(0,0)"/>
<path d="" fill="#495C8B" transform="translate(0,0)"/>
<path d="" fill="#4B8F3C" transform="translate(0,0)"/>
<path d="" fill="#586998" transform="translate(0,0)"/>
<path d="M0 0 C2 1 2 1 2 1 Z " fill="#D2F6E5" transform="translate(58,100)"/>
<path d="M0 0 C2 1 2 1 2 1 Z " fill="#CDF1E1" transform="translate(85,99)"/>
<path d="M0 0 C2 1 2 1 2 1 Z " fill="#9FEBC9" transform="translate(55,99)"/>
<path d="" fill="#498428" transform="translate(0,0)"/>
<path d="" fill="#596C9D" transform="translate(0,0)"/>
<path d="M0 0 C2 1 2 1 2 1 Z " fill="#D1F2E4" transform="translate(87,98)"/>
<path d="M0 0 C2 1 2 1 2 1 Z " fill="#CCF0E0" transform="translate(89,97)"/>
<path d="" fill="#D37C22" transform="translate(0,0)"/>
<path d="M0 0 C2 1 2 1 2 1 Z " fill="#6CDB9D" transform="translate(50,96)"/>
<path d="" fill="#2B52A2" transform="translate(0,0)"/>
<path d="M0 0 C2 1 2 1 2 1 Z " fill="#CFE8EC" transform="translate(92,95)"/>
<path d="" fill="#D89124" transform="translate(0,0)"/>
<path d="" fill="#5770A9" transform="translate(0,0)"/>
<path d="" fill="#DA9C3B" transform="translate(0,0)"/>
<path d="" fill="#D5E3F5" transform="translate(0,0)"/>
<path d="" fill="#C3EBD5" transform="translate(0,0)"/>
<path d="" fill="#E09F29" transform="translate(0,0)"/>
<path d="" fill="#C6D5E5" transform="translate(0,0)"/>
<path d="" fill="#BAE4CE" transform="translate(0,0)"/>
<path d="" fill="#9CD5B1" transform="translate(0,0)"/>
<path d="" fill="#EBC578" transform="translate(0,0)"/>
<path d="" fill="#3E77B6" transform="translate(0,0)"/>
<path d="" fill="#E1F6FE" transform="translate(0,0)"/>
<path d="" fill="#E08A40" transform="translate(0,0)"/>
<path d="" fill="#DE5A40" transform="translate(0,0)"/>
<path d="" fill="#E0442A" transform="translate(0,0)"/>
<path d="" fill="#FEFEDE" transform="translate(0,0)"/>
<path d="" fill="#DC4230" transform="translate(0,0)"/>
<path d="" fill="#FEFEB5" transform="translate(0,0)"/>
<path d="" fill="#FEFEE8" transform="translate(0,0)"/>
<path d="" fill="#FEFEE8" transform="translate(0,0)"/>
<path d="M0 0 C2 1 2 1 2 1 Z " fill="#CC4E39" transform="translate(86,42)"/>
<path d="M0 0 C2 1 2 1 2 1 Z " fill="#CC5641" transform="translate(84,41)"/>
<path d="M0 0 C2 1 2 1 2 1 Z " fill="#DE2B1F" transform="translate(54,41)"/>
<path d="" fill="#FEF3EB" transform="translate(0,0)"/>
<path d="M0 0 C2 1 2 1 2 1 Z " fill="#CC4B36" transform="translate(82,40)"/>
<path d="M0 0 C2 1 2 1 2 1 Z " fill="#D3573F" transform="translate(57,40)"/>
<path d="M0 0 C2 1 2 1 2 1 Z " fill="#CD523C" transform="translate(79,39)"/>
<path d="" fill="#DD4937" transform="translate(0,0)"/>
<path d="" fill="#FEEBDB" transform="translate(0,0)"/>
<path d="" fill="#FBE4E7" transform="translate(0,0)"/>
<path d="M0 0 C2 1 2 1 2 1 Z " fill="#FEEDD9" transform="translate(29,24)"/>
<path d="M0 0 C2 1 2 1 2 1 Z " fill="#FEDFDF" transform="translate(107,22)"/>
<path d="M0 0 C2 1 2 1 2 1 Z " fill="#FEE2E2" transform="translate(104,20)"/>
<path d="M0 0 C2 1 2 1 2 1 Z " fill="#FEE6E5" transform="translate(99,17)"/>
<path d="M0 0 C2 1 2 1 2 1 Z " fill="#FEF9F2" transform="translate(39,17)"/>
<path d="M0 0 C2 1 2 1 2 1 Z " fill="#FEE2DF" transform="translate(97,16)"/>
<path d="M0 0 C2 1 2 1 2 1 Z " fill="#FEF9EF" transform="translate(41,16)"/>
<path d="M0 0 C2 1 2 1 2 1 Z " fill="#FEE3DF" transform="translate(95,15)"/>
<path d="M0 0 C2 1 2 1 2 1 Z " fill="#FEF9F0" transform="translate(43,15)"/>
<path d="M0 0 C2 1 2 1 2 1 Z " fill="#FEEAE6" transform="translate(93,14)"/>
<path d="M0 0 C2 1 2 1 2 1 Z " fill="#FEFAF3" transform="translate(45,14)"/>
<path d="M0 0 C2 1 2 1 2 1 Z " fill="#FECDBA" transform="translate(90,13)"/>
<path d="M0 0 C2 1 2 1 2 1 Z " fill="#FEF8EC" transform="translate(48,13)"/>
<path d="M0 0 C2 1 2 1 2 1 Z " fill="#FEEEE9" transform="translate(88,12)"/>
<path d="" fill="#497F33" transform="translate(0,0)"/>
<path d="" fill="#457430" transform="translate(0,0)"/>
<path d="" fill="#44732F" transform="translate(0,0)"/>
<path d="" fill="#487E31" transform="translate(0,0)"/>
<path d="" fill="#4B7634" transform="translate(0,0)"/>
<path d="" fill="#52823A" transform="translate(0,0)"/>
<path d="" fill="#366D24" transform="translate(0,0)"/>
<path d="" fill="#477F31" transform="translate(0,0)"/>
<path d="" fill="#547A3D" transform="translate(0,0)"/>
<path d="" fill="#628947" transform="translate(0,0)"/>
<path d="" fill="#386E26" transform="translate(0,0)"/>
<path d="" fill="#4D8236" transform="translate(0,0)"/>
<path d="" fill="#62814A" transform="translate(0,0)"/>
<path d="" fill="#527B3C" transform="translate(0,0)"/>
<path d="" fill="#698D4D" transform="translate(0,0)"/>
<path d="" fill="#447531" transform="translate(0,0)"/>
<path d="" fill="#5E8844" transform="translate(0,0)"/>
<path d="" fill="#347024" transform="translate(0,0)"/>
<path d="" fill="#537257" transform="translate(0,0)"/>
<path d="" fill="#206813" transform="translate(0,0)"/>
<path d="" fill="#4C6663" transform="translate(0,0)"/>
<path d="" fill="#015C00" transform="translate(0,0)"/>
<path d="" fill="#48547A" transform="translate(0,0)"/>
<path d="" fill="#005B00" transform="translate(0,0)"/>
<path d="" fill="#4B577C" transform="translate(0,0)"/>
<path d="" fill="#0A6402" transform="translate(0,0)"/>
<path d="" fill="#515C7F" transform="translate(0,0)"/>
<path d="" fill="#2A721D" transform="translate(0,0)"/>
<path d="" fill="#5A6383" transform="translate(0,0)"/>
<path d="" fill="#3D7A2D" transform="translate(0,0)"/>
<path d="" fill="#4D813A" transform="translate(0,0)"/>
<path d="" fill="#5B8847" transform="translate(0,0)"/>
<path d="" fill="#334980" transform="translate(0,0)"/>
<path d="" fill="#54628A" transform="translate(0,0)"/>
<path d="" fill="#4A873A" transform="translate(0,0)"/>
<path d="" fill="#63914F" transform="translate(0,0)"/>
<path d="" fill="#586690" transform="translate(0,0)"/>
<path d="" fill="#4C8D3D" transform="translate(0,0)"/>
<path d="" fill="#495E92" transform="translate(0,0)"/>
<path d="" fill="#D1F5E6" transform="translate(0,0)"/>
<path d="" fill="#C3F1DD" transform="translate(0,0)"/>
<path d="" fill="#D9F3E8" transform="translate(0,0)"/>
<path d="" fill="#A5EACD" transform="translate(0,0)"/>
<path d="" fill="#CFE1F7" transform="translate(0,0)"/>
<path d="" fill="#BBEDD7" transform="translate(0,0)"/>
<path d="" fill="#D1E2F7" transform="translate(0,0)"/>
<path d="" fill="#C2EED8" transform="translate(0,0)"/>
<path d="" fill="#C1EED7" transform="translate(0,0)"/>
<path d="" fill="#DAE6F4" transform="translate(0,0)"/>
<path d="" fill="#CCEAD9" transform="translate(0,0)"/>
<path d="" fill="#B1E2C8" transform="translate(0,0)"/>
<path d="" fill="#00409C" transform="translate(0,0)"/>
<path d="" fill="#CCE7FD" transform="translate(0,0)"/>
<path d="" fill="#C6F1FE" transform="translate(0,0)"/>
<path d="" fill="#C8E6FD" transform="translate(0,0)"/>
<path d="" fill="#CEEBFE" transform="translate(0,0)"/>
<path d="" fill="#DC573D" transform="translate(0,0)"/>
<path d="" fill="#D9694F" transform="translate(0,0)"/>
<path d="" fill="#CE684E" transform="translate(0,0)"/>
<path d="" fill="#CC3A25" transform="translate(0,0)"/>
<path d="" fill="#D66046" transform="translate(0,0)"/>
<path d="" fill="#D15336" transform="translate(0,0)"/>
<path d="" fill="#CB5D48" transform="translate(0,0)"/>
<path d="" fill="#D74329" transform="translate(0,0)"/>
<path d="" fill="#D72D0C" transform="translate(0,0)"/>
<path d="" fill="#D5573E" transform="translate(0,0)"/>
<path d="" fill="#CD876E" transform="translate(0,0)"/>
<path d="" fill="#CD8168" transform="translate(0,0)"/>
<path d="" fill="#CD7F64" transform="translate(0,0)"/>
<path d="" fill="#FEF0E9" transform="translate(0,0)"/>
<path d="" fill="#CD7F64" transform="translate(0,0)"/>
<path d="" fill="#CD8065" transform="translate(0,0)"/>
<path d="" fill="#FEF9F5" transform="translate(0,0)"/>
<path d="" fill="#CC8369" transform="translate(0,0)"/>
<path d="" fill="#FFF0E7" transform="translate(0,0)"/>
<path d="" fill="#FEFAF6" transform="translate(0,0)"/>
<path d="" fill="#DC4F2D" transform="translate(0,0)"/>
<path d="" fill="#FEF5EE" transform="translate(0,0)"/>
<path d="" fill="#D76344" transform="translate(0,0)"/>
<path d="" fill="#FFEDE0" transform="translate(0,0)"/>
<path d="" fill="#D46F51" transform="translate(0,0)"/>
<path d="" fill="#D1785C" transform="translate(0,0)"/>
<path d="" fill="#FEFDFA" transform="translate(0,0)"/>
<path d="" fill="#DB6040" transform="translate(0,0)"/>
<path d="" fill="#FEFCF9" transform="translate(0,0)"/>
<path d="" fill="#FEFDF9" transform="translate(0,0)"/>
<path d="" fill="#FEFDFA" transform="translate(0,0)"/>
<path d="" fill="#FEFEFB" transform="translate(0,0)"/>
<path d="" fill="#FCE3E4" transform="translate(0,0)"/>
<path d="" fill="#FEEBED" transform="translate(0,0)"/>
<path d="" fill="#FFF3E4" transform="translate(0,0)"/>
<path d="" fill="#FFF8EF" transform="translate(0,0)"/>
<path d="" fill="#FEE5E6" transform="translate(0,0)"/>
<path d="" fill="#FEFBF6" transform="translate(0,0)"/>
<path d="" fill="#FFF6EB" transform="translate(0,0)"/>
<path d="" fill="#FEEAEB" transform="translate(0,0)"/>
<path d="" fill="#FEFBF6" transform="translate(0,0)"/>
<path d="" fill="#FFE1E0" transform="translate(0,0)"/>
<path d="" fill="#FFF9F0" transform="translate(0,0)"/>
</svg>
