<?xml version="1.0" encoding="UTF-8"?>
<svg version="1.1" xmlns="http://www.w3.org/2000/svg" width="1024" height="1024">
<path d="M0 0 C337.92 0 675.84 0 1024 0 C1024 337.92 1024 675.84 1024 1024 C686.08 1024 348.16 1024 0 1024 C0 686.08 0 348.16 0 0 Z " fill="#FEFEFE" transform="translate(0,0)"/>
<path d="M0 0 C147.18 0 294.36 0 446 0 C446.020625 73.404375 446.04125 146.80875 446.0625 222.4375 C446.071604 245.6605249 446.08070801 268.8835498 446.09008789 292.81030273 C446.09460449 321.05285645 446.09460449 321.05285645 446.09544373 334.25209045 C446.09637969 343.51954906 446.10006226 352.78700171 446.10557556 362.05445862 C446.11191619 372.72826441 446.11484177 383.40206444 446.11344495 394.07587213 C446.11283942 399.54240743 446.11383604 405.00892983 446.11921513 410.47546279 C446.12404022 415.40866724 446.12435056 420.34184953 446.12090111 425.27505493 C446.12047347 427.06788683 446.12177232 428.86072006 446.12488258 430.65354931 C446.12884501 433.07813469 446.12676398 435.50263837 446.12304783 437.92722225 C446.12567485 438.63855958 446.12830188 439.34989692 446.13100851 440.08278992 C446.11414527 444.88585473 446.11414527 444.88585473 445 446 C442.63285171 446.09873759 440.29489384 446.13179183 437.92722225 446.12304783 C437.1744665 446.12420157 436.42171075 446.12535532 435.64614422 446.12654402 C433.0926828 446.12921654 430.53928287 446.12468435 427.98582458 446.12025452 C426.15387965 446.12069148 424.32193477 446.12156756 422.48999023 446.12284851 C417.42064487 446.12510409 412.35132041 446.12106098 407.2819777 446.11607273 C401.74467445 446.11172607 396.20737227 446.11316601 390.67006779 446.11389065 C379.90655743 446.11442373 369.14305537 446.10979264 358.37954715 446.10338932 C345.93731608 446.09620793 333.49509005 446.09539559 321.05285645 446.09460449 C288.18106964 446.08934758 255.3092847 446.07538656 222.4375 446.0625 C149.033125 446.041875 75.62875 446.02125 0 446 C0 298.82 0 151.64 0 0 Z " fill="#FFBA08" transform="translate(534,534)"/>
<path d="M0 0 C147.18 0 294.36 0 446 0 C446 147.18 446 294.36 446 446 C372.595625 446.020625 299.19125 446.04125 223.5625 446.0625 C200.3394751 446.071604 177.1164502 446.08070801 153.18969727 446.09008789 C124.94714355 446.09460449 124.94714355 446.09460449 111.74790955 446.09544373 C102.48045094 446.09637969 93.21299829 446.10006226 83.94554138 446.10557556 C73.27173559 446.11191619 62.59793556 446.11484177 51.92412787 446.11344495 C46.45759257 446.11283942 40.99107017 446.11383604 35.52453721 446.11921513 C30.59133276 446.12404022 25.65815047 446.12435056 20.72494507 446.12090111 C18.93211317 446.12047347 17.13927994 446.12177232 15.34645069 446.12488258 C12.92186531 446.12884501 10.49736163 446.12676398 8.07277775 446.12304783 C7.36144042 446.12567485 6.65010308 446.12830188 5.91721008 446.13100851 C1.11414527 446.11414527 1.11414527 446.11414527 0 445 C-0.09873759 442.63285171 -0.13179183 440.29489384 -0.12304783 437.92722225 C-0.12420157 437.1744665 -0.12535532 436.42171075 -0.12654402 435.64614422 C-0.12921654 433.0926828 -0.12468435 430.53928287 -0.12025452 427.98582458 C-0.12069148 426.15387965 -0.12156756 424.32193477 -0.12284851 422.48999023 C-0.12510409 417.42064487 -0.12106098 412.35132041 -0.11607273 407.2819777 C-0.11172607 401.74467445 -0.11316601 396.20737227 -0.11389065 390.67006779 C-0.11442373 379.90655743 -0.10979264 369.14305537 -0.10338932 358.37954715 C-0.09620793 345.93731608 -0.09539559 333.49509005 -0.09460449 321.05285645 C-0.08934758 288.18106964 -0.07538656 255.3092847 -0.0625 222.4375 C-0.041875 149.033125 -0.02125 75.62875 0 0 Z " fill="#05A6F0" transform="translate(44,534)"/>
<path d="M0 0 C73.404375 -0.020625 146.80875 -0.04125 222.4375 -0.0625 C245.6605249 -0.071604 268.8835498 -0.08070801 292.81030273 -0.09008789 C321.05285645 -0.09460449 321.05285645 -0.09460449 334.25209045 -0.09544373 C343.51954906 -0.09637969 352.78700171 -0.10006226 362.05445862 -0.10557556 C372.72826441 -0.11191619 383.40206444 -0.11484177 394.07587213 -0.11344495 C399.54240743 -0.11283942 405.00892983 -0.11383604 410.47546279 -0.11921513 C415.40866724 -0.12404022 420.34184953 -0.12435056 425.27505493 -0.12090111 C427.06788683 -0.12047347 428.86072006 -0.12177232 430.65354931 -0.12488258 C433.07813469 -0.12884501 435.50263837 -0.12676398 437.92722225 -0.12304783 C438.63855958 -0.12567485 439.34989692 -0.12830188 440.08278992 -0.13100851 C444.88585473 -0.11414527 444.88585473 -0.11414527 446 1 C446.09873759 3.36714829 446.13179183 5.70510616 446.12304783 8.07277775 C446.12420157 8.8255335 446.12535532 9.57828925 446.12654402 10.35385578 C446.12921654 12.9073172 446.12468435 15.46071713 446.12025452 18.01417542 C446.12069148 19.84612035 446.12156756 21.67806523 446.12284851 23.51000977 C446.12510409 28.57935513 446.12106098 33.64867959 446.11607273 38.7180223 C446.11172607 44.25532555 446.11316601 49.79262773 446.11389065 55.32993221 C446.11442373 66.09344257 446.10979264 76.85694463 446.10338932 87.62045285 C446.09620793 100.06268392 446.09539559 112.50490995 446.09460449 124.94714355 C446.08934758 157.81893036 446.07538656 190.6907153 446.0625 223.5625 C446.041875 296.966875 446.02125 370.37125 446 446 C298.82 446 151.64 446 0 446 C0 298.82 0 151.64 0 0 Z " fill="#81BC06" transform="translate(534,44)"/>
<path d="M0 0 C0.71133733 0.00262702 1.42267466 0.00525405 2.15556767 0.00796068 C2.90832342 0.00680694 3.66107918 0.00565319 4.43664571 0.00446448 C6.99010712 0.00179197 9.54350705 0.00632416 12.09696534 0.01075399 C13.92891027 0.01031702 15.76085515 0.00944095 17.59279969 0.00816 C22.66214505 0.00590442 27.73146952 0.00994753 32.80081223 0.01493578 C38.33811547 0.01928244 43.87541765 0.0178425 49.41272214 0.01711786 C60.17623249 0.01658478 70.93973455 0.02121587 81.70324277 0.02761919 C94.14547384 0.03480058 106.58769988 0.03561292 119.02993348 0.03640402 C151.90172028 0.04166093 184.77350523 0.05562195 217.64528992 0.06850851 C327.75185242 0.09944601 327.75185242 0.09944601 440.08278992 0.13100851 C440.08278992 147.31100851 440.08278992 294.49100851 440.08278992 446.13100851 C292.90278992 446.13100851 145.72278992 446.13100851 -5.91721008 446.13100851 C-5.93783508 372.72663351 -5.95846008 299.32225851 -5.97971008 223.69350851 C-5.98881408 200.47048361 -5.99791808 177.2474587 -6.00729797 153.32070578 C-6.01181457 125.07815206 -6.01181457 125.07815206 -6.0126538 111.87891806 C-6.01358976 102.61145945 -6.01727233 93.3440068 -6.02278564 84.07654989 C-6.02912627 73.4027441 -6.03205184 62.72894407 -6.03065503 52.05513638 C-6.0300495 46.58860108 -6.03104612 41.12207868 -6.03642521 35.65554572 C-6.04125029 30.72234127 -6.04156063 25.78915898 -6.03811118 20.85595358 C-6.03768355 19.06312168 -6.03898239 17.27028845 -6.04209265 15.4774592 C-6.04605508 13.05287382 -6.04397405 10.62837014 -6.0402579 8.20378626 C-6.04288493 7.49244893 -6.04551195 6.78111159 -6.04821859 6.04821859 C-6.02814065 0.32953053 -5.71868806 0.02007794 0 0 Z " fill="#F35325" transform="translate(49.91721007600427,43.86899149045348)"/>
</svg>
