<?xml version="1.0" encoding="UTF-8"?>
<svg version="1.1" xmlns="http://www.w3.org/2000/svg" width="512" height="512">
<path d="M0 0 C73.59 0 147.18 0 223 0 C223 73.59 223 147.18 223 223 C149.41 223 75.82 223 0 223 C0 149.41 0 75.82 0 0 Z " fill="#FFBA08" transform="translate(268,267)"/>
<path d="M0 0 C73.59 0 147.18 0 223 0 C223 73.59 223 147.18 223 223 C149.41 223 75.82 223 0 223 C0 149.41 0 75.82 0 0 Z " fill="#05A6F0" transform="translate(23,267)"/>
<path d="M0 0 C73.59 0 147.18 0 223 0 C223 73.59 223 147.18 223 223 C149.41 223 75.82 223 0 223 C0 149.41 0 75.82 0 0 Z " fill="#81BC06" transform="translate(268,22)"/>
<path d="M0 0 C73.59 0 147.18 0 223 0 C223 73.59 223 147.18 223 223 C149.41 223 75.82 223 0 223 C0 149.41 0 75.82 0 0 Z " fill="#F35325" transform="translate(23,22)"/>
</svg>
