<?xml version="1.0" encoding="UTF-8"?>
<svg version="1.1" xmlns="http://www.w3.org/2000/svg" width="512" height="512">
<path d="M0 0 C0.96988861 0.00182281 1.93977722 0.00364563 2.9390564 0.00552368 C17.29056055 0.05091691 31.25442918 0.5562653 45.375 3.3125 C46.72053955 3.55395752 46.72053955 3.55395752 48.09326172 3.80029297 C107.90338904 14.62287989 165.41745829 48.68064457 202.375 97.3125 C202.79168945 97.85277832 203.20837891 98.39305664 203.63769531 98.94970703 C211.3209873 108.9447116 218.06342968 119.40459036 224.375 130.3125 C224.76929199 130.98974121 225.16358398 131.66698242 225.56982422 132.36474609 C240.47785371 158.28373809 250.03651819 187.77601638 254.375 217.3125 C254.55232666 218.51712891 254.72965332 219.72175781 254.91235352 220.96289062 C256.511325 232.62017354 256.7334053 244.18436098 256.6875 255.9375 C256.68476578 257.39233292 256.68476578 257.39233292 256.68197632 258.8765564 C256.63658309 273.22806055 256.1312347 287.19192918 253.375 301.3125 C253.21402832 302.20952637 253.05305664 303.10655273 252.88720703 304.03076172 C242.06462011 363.84088904 208.00685543 421.35495829 159.375 458.3125 C158.83472168 458.72918945 158.29444336 459.14587891 157.73779297 459.57519531 C147.7427884 467.2584873 137.28290964 474.00092968 126.375 480.3125 C125.69775879 480.70679199 125.02051758 481.10108398 124.32275391 481.50732422 C101.4041244 494.68961173 75.82927437 503.29510918 50 508.625 C49.28932373 508.77243652 48.57864746 508.91987305 47.84643555 509.07177734 C32.20391634 512.05713787 16.56830394 512.6873098 0.6875 512.625 C-0.27989105 512.62317719 -1.2472821 512.62135437 -2.24398804 512.61947632 C-16.57690977 512.57404826 -30.52273917 512.06516072 -44.625 509.3125 C-45.52202637 509.15152832 -46.41905273 508.99055664 -47.34326172 508.82470703 C-107.15338904 498.00212011 -164.66745829 463.94435543 -201.625 415.3125 C-202.04168945 414.77222168 -202.45837891 414.23194336 -202.88769531 413.67529297 C-210.5709873 403.6802884 -217.31342968 393.22040964 -223.625 382.3125 C-224.01929199 381.63525879 -224.41358398 380.95801758 -224.81982422 380.26025391 C-239.72785371 354.34126191 -249.28651819 324.84898362 -253.625 295.3125 C-253.80232666 294.10787109 -253.97965332 292.90324219 -254.16235352 291.66210938 C-255.761325 280.00482646 -255.9834053 268.44063902 -255.9375 256.6875 C-255.93567719 255.71761139 -255.93385437 254.74772278 -255.93197632 253.7484436 C-255.88658309 239.39693945 -255.3812347 225.43307082 -252.625 211.3125 C-252.38354248 209.96696045 -252.38354248 209.96696045 -252.13720703 208.59423828 C-241.31462011 148.78411096 -207.25685543 91.27004171 -158.625 54.3125 C-158.08472168 53.89581055 -157.54444336 53.47912109 -156.98779297 53.04980469 C-146.9927884 45.3665127 -136.53290964 38.62407032 -125.625 32.3125 C-124.94775879 31.91820801 -124.27051758 31.52391602 -123.57275391 31.11767578 C-97.65376191 16.20964629 -68.16148362 6.65098181 -38.625 2.3125 C-37.42037109 2.13517334 -36.21574219 1.95784668 -34.97460938 1.77514648 C-23.31732646 0.176175 -11.75313902 -0.0459053 0 0 Z " fill="#CB2027" transform="translate(255.625,-0.3125)"/>
<path d="M0 0 C17.16537061 -0.61743178 34.51520052 1.1515346 51.01367188 6.07373047 C51.7474707 6.27796631 52.48126953 6.48220215 53.23730469 6.69262695 C78.45736172 13.88965328 101.72621597 29.78431356 115.11914062 52.64794922 C123.46198839 67.73388218 127.99513814 83.09106355 128.32226562 100.40966797 C128.33752792 101.19809586 128.35279022 101.98652374 128.36851501 102.79884338 C128.66196013 121.43483541 127.97548168 138.22631841 122.01367188 156.07373047 C121.63734619 157.2406543 121.63734619 157.2406543 121.25341797 158.43115234 C119.72635149 163.08916597 117.96727971 167.57795953 116.01367188 172.07373047 C115.51480469 173.23517578 115.0159375 174.39662109 114.50195312 175.59326172 C104.41420096 197.35642681 86.73174072 216.38764715 64.45507812 225.82373047 C48.08880449 231.76834745 27.87097459 234.80995219 11.13476562 228.60888672 C3.00496007 224.61012128 -4.54266893 219.60903853 -11.83789062 214.25732422 C-14.62164215 211.88376415 -14.62164215 211.88376415 -16.98632812 212.07373047 C-17.13666504 212.8777832 -17.28700195 213.68183594 -17.44189453 214.51025391 C-24.21294382 250.38709101 -32.87518294 291.12132031 -61.98632812 316.07373047 C-64.22070313 317.29248047 -64.22070313 317.29248047 -65.98632812 318.07373047 C-71.20790856 287.11721787 -67.62938538 256.06476746 -60.60058594 225.74707031 C-60.02001902 223.22035818 -59.46249334 220.69003926 -58.91601562 218.15576172 C-57.05145436 209.51832235 -54.97864487 200.97066988 -52.63720703 192.44775391 C-51.51844794 188.36717873 -50.41243698 184.28316497 -49.30786133 180.19873047 C-48.69006231 177.91429231 -48.07020157 175.63041043 -47.44799805 173.34716797 C-42.41903661 156.31148563 -42.41903661 156.31148563 -46.01367188 139.46826172 C-51.29222498 126.47326954 -48.56048408 107.9240214 -43.50976562 95.41748047 C-38.37246955 84.05873339 -31.98129181 76.12883705 -20.60351562 70.99951172 C-13.43187153 68.46267642 -6.05603813 69.73086258 0.72460938 72.81982422 C6.85189243 76.17623695 10.81955421 80.0204311 13.35742188 86.61669922 C17.85854687 103.46912555 9.14655037 123.56605331 3.93115234 139.27490234 C-3.9156995 162.81962629 -3.9156995 162.81962629 -0.23632812 186.72998047 C2.78141798 192.38825442 8.08342319 195.194618 13.91992188 197.33935547 C25.37925355 200.05949986 36.65567506 198.65546136 47.01367188 193.07373047 C65.88667012 181.28176412 75.86384156 158.89766073 80.88867188 137.94873047 C82.86433817 128.72061827 83.25699416 119.66016604 83.30883789 110.25 C83.3202806 108.81337576 83.34060836 107.37679138 83.37036133 105.94042969 C83.65386998 92.1831328 81.85105739 78.92384491 75.20117188 66.63623047 C74.85280273 65.97357178 74.50443359 65.31091309 74.14550781 64.62817383 C65.34505255 48.29448081 51.18623934 38.79791963 33.82617188 33.01123047 C10.75063046 26.48988181 -12.80168456 30.33974183 -33.98632812 41.07373047 C-38.20385491 43.48796893 -42.10786026 46.14979359 -45.98632812 49.07373047 C-47.36884766 50.08886719 -47.36884766 50.08886719 -48.77929688 51.12451172 C-66.08247386 64.47407139 -77.61664538 83.03483001 -81.63867188 104.56591797 C-83.58334033 124.18740422 -79.63716176 137.59632428 -70.57226562 154.74951172 C-67.42615406 161.12095348 -66.7337746 166.95318054 -68.82226562 173.82373047 C-70.25819921 177.53772411 -71.77300986 180.75375308 -73.98632812 184.07373047 C-88.08260832 181.72435044 -99.774158 174.46679621 -108.29882812 162.94873047 C-112.0689518 156.86099536 -114.06480075 149.92439328 -115.98632812 143.07373047 C-116.17469238 142.46150635 -116.36305664 141.84928223 -116.55712891 141.21850586 C-118.53592507 133.91782673 -118.35847742 126.39967793 -118.35693359 118.89282227 C-118.36127456 116.54026048 -118.39758785 114.18962974 -118.43554688 111.83740234 C-118.64069406 84.08792291 -106.47826402 58.28803141 -87.39013672 38.41162109 C-80.82548495 31.87624967 -73.8606821 25.98059793 -65.98632812 21.07373047 C-64.9525 20.42919922 -63.91867188 19.78466797 -62.85351562 19.12060547 C-43.56072999 7.60646006 -22.51492125 0.83573085 0 0 Z " fill="#F0F0F0" transform="translate(250.986328125,111.92626953125)"/>
</svg>
