<?xml version="1.0" encoding="UTF-8"?>
<svg version="1.1" xmlns="http://www.w3.org/2000/svg" width="512" height="512">
<path d="M0 0 C1.01790619 0.00215515 2.03581238 0.0043103 3.08456421 0.00653076 C17.69363523 0.05620146 32.02575853 0.30709809 46.375 3.3125 C47.34985352 3.51117676 48.32470703 3.70985352 49.32910156 3.91455078 C97.7109774 14.03517194 141.69928269 35.9516877 177.375 70.3125 C178.3640332 71.26068604 178.3640332 71.26068604 179.37304688 72.22802734 C188.86130305 81.37247479 197.6012044 90.66984009 205.375 101.3125 C206.23306152 102.46355017 207.09113451 103.61459177 207.94921875 104.765625 C213.98736829 112.95680614 219.34595521 121.47054105 224.375 130.3125 C224.73948242 130.94430176 225.10396484 131.57610352 225.47949219 132.22705078 C247.08534998 169.97532572 256.85198095 212.74189997 256.6875 255.9375 C256.68534485 256.95540619 256.6831897 257.97331238 256.68096924 259.02206421 C256.63129854 273.63113523 256.38040191 287.96325853 253.375 302.3125 C253.07698486 303.77478027 253.07698486 303.77478027 252.77294922 305.26660156 C242.65232806 353.6484774 220.7358123 397.63678269 186.375 433.3125 C185.74287598 433.97185547 185.11075195 434.63121094 184.45947266 435.31054688 C175.31502521 444.79880305 166.01765991 453.5387044 155.375 461.3125 C154.22394983 462.17056152 153.07290823 463.02863451 151.921875 463.88671875 C143.73224019 469.92427396 135.22961724 475.30707302 126.375 480.3125 C125.66778809 480.7146875 124.96057617 481.116875 124.23193359 481.53125 C101.09654164 494.5566741 75.92537591 503.30551461 49.9375 508.625 C49.21860596 508.77235596 48.49971191 508.91971191 47.7590332 509.0715332 C33.08339502 511.86090125 18.55831162 512.66142619 3.64770508 512.62817383 C0.70811513 512.6250221 -2.2304558 512.64854926 -5.16992188 512.67382812 C-18.54306192 512.71848737 -31.43916711 511.51301542 -44.625 509.3125 C-46.33055054 509.03031616 -46.33055054 509.03031616 -48.07055664 508.74243164 C-91.33802759 500.97044532 -132.38793216 480.98345309 -165.625 452.3125 C-166.37007813 451.67828125 -167.11515625 451.0440625 -167.8828125 450.390625 C-181.38779833 438.57948485 -194.05918743 425.82889772 -204.625 411.3125 C-205.48149066 410.16255169 -206.33826433 409.01281411 -207.1953125 407.86328125 C-213.23534209 399.67315742 -218.61867614 391.16870382 -223.625 382.3125 C-224.0271875 381.60528809 -224.429375 380.89807617 -224.84375 380.16943359 C-237.8691741 357.03404164 -246.61801461 331.86287591 -251.9375 305.875 C-252.08485596 305.15610596 -252.23221191 304.43721191 -252.3840332 303.6965332 C-255.35789088 288.05024391 -255.99800362 272.57681954 -255.9375 256.6875 C-255.93534485 255.66959381 -255.9331897 254.65168762 -255.93096924 253.60293579 C-255.88129854 238.99386477 -255.63040191 224.66174147 -252.625 210.3125 C-252.42632324 209.33764648 -252.22764648 208.36279297 -252.02294922 207.35839844 C-241.90232806 158.9765226 -219.9858123 114.98821731 -185.625 79.3125 C-184.99287598 78.65314453 -184.36075195 77.99378906 -183.70947266 77.31445312 C-174.56502521 67.82619695 -165.26765991 59.0862956 -154.625 51.3125 C-153.47394983 50.45443848 -152.32290823 49.59636549 -151.171875 48.73828125 C-142.98224019 42.70072604 -134.47961724 37.31792698 -125.625 32.3125 C-124.91778809 31.9103125 -124.21057617 31.508125 -123.48193359 31.09375 C-100.34654164 18.0683259 -75.17537591 9.31948539 -49.1875 4 C-48.46860596 3.85264404 -47.74971191 3.70528809 -47.0090332 3.5534668 C-31.36274391 0.57960912 -15.88931954 -0.06050362 0 0 Z " fill="#FF4500" transform="translate(255.625,-0.3125)"/>
<path d="M0 0 C5.88226568 4.51101856 9.35006097 10.6451227 10.36328125 17.96875 C10.6747706 26.85657942 8.57688852 32.68341682 3.79296875 40 C-2.33369247 45.86028465 -10.29605646 49.19357941 -18.80859375 49.01953125 C-26.33765532 48.12691055 -32.28306093 44.60562188 -37.38671875 39.109375 C-40.80947122 34.34591304 -43.08203125 28.64422662 -43.08203125 22.75 C-44.38914062 22.58564453 -44.38914062 22.58564453 -45.72265625 22.41796875 C-52.59077991 21.50370554 -59.19987524 20.3067474 -65.89453125 18.53515625 C-70.2254999 17.46833677 -74.5976162 16.67857118 -78.98388672 15.88183594 C-85.71657278 14.65299509 -92.39823131 13.22252467 -99.08203125 11.75 C-99.26995239 13.42654663 -99.26995239 13.42654663 -99.46166992 15.13696289 C-100.07114022 19.99680055 -101.01799255 24.76389691 -102.0078125 29.55859375 C-102.19667526 30.4835817 -102.38553802 31.40856964 -102.5801239 32.36158752 C-102.97958605 34.31419759 -103.38055822 36.26649928 -103.78295898 38.21850586 C-104.38614587 41.14679156 -104.98348786 44.0762235 -105.58007812 47.00585938 C-107.51541359 56.46296502 -109.51345718 65.89515238 -111.78840637 75.27708435 C-113.10847133 80.73220312 -114.17309466 86.21266264 -115.08203125 91.75 C-114.36144531 91.70359375 -113.64085937 91.6571875 -112.8984375 91.609375 C-95.92659701 91.03889297 -78.1200543 94.24550178 -62.08203125 99.75 C-61.03668213 100.09538818 -61.03668213 100.09538818 -59.97021484 100.44775391 C-44.70576797 105.52501912 -30.03839203 112.11841963 -17.08203125 121.75 C-12.87475675 119.69597683 -8.81894285 117.38241325 -4.73828125 115.08984375 C2.82267296 111.27600949 12.91664185 111.73007338 21.09765625 113.3984375 C31.37658294 116.80533388 37.85494138 122.81889217 43.5078125 131.90625 C48.13800744 141.24359602 48.95055483 153.43470747 45.75 163.37890625 C44.31108271 166.33442017 42.75838908 169.02899578 40.91796875 171.75 C40.52351563 172.36101562 40.1290625 172.97203125 39.72265625 173.6015625 C38.01596922 175.928863 36.25858113 177.56803522 33.7175293 178.92553711 C28.77478851 181.52537231 28.77478851 181.52537231 26.14038086 186.21386719 C25.9123057 189.15419455 25.92107124 191.99100859 26.04296875 194.9375 C26.47075229 218.11420121 15.53740002 238.16021225 -0.08203125 254.75 C-30.39775671 285.44886259 -75.98341021 298.72295899 -118.13867188 298.99145508 C-119.74478778 298.99599503 -121.35090937 298.99881109 -122.95703125 299 C-123.77872803 299.00067474 -124.6004248 299.00134949 -125.44702148 299.00204468 C-138.22075501 298.98541383 -150.54825709 298.39866595 -163.08203125 295.75 C-163.95166504 295.57307617 -164.82129883 295.39615234 -165.71728516 295.21386719 C-183.70052295 291.48653779 -199.94844575 285.48551119 -216.08203125 276.75 C-216.72027832 276.40598145 -217.35852539 276.06196289 -218.01611328 275.70751953 C-241.15525012 263.0426947 -261.10499579 243.3456059 -269.08203125 217.75 C-269.54222656 216.28240234 -269.54222656 216.28240234 -270.01171875 214.78515625 C-271.40119431 209.64409669 -272.14182475 204.79257497 -272.203125 199.47265625 C-272.21827148 198.54001953 -272.23341797 197.60738281 -272.24902344 196.64648438 C-272.26244169 194.79220979 -272.23977104 192.93723655 -272.17675781 191.08398438 C-272.16070872 186.04977415 -272.16070872 186.04977415 -274.76708984 181.93798828 C-276.8151442 180.42516134 -278.91580982 179.08585836 -281.08203125 177.75 C-288.16435376 171.22315377 -292.79614241 164.41243602 -293.421875 154.65234375 C-293.83887419 142.77573466 -292.25098952 133.79292979 -284.08203125 124.75 C-276.6894935 117.0034135 -269.70043874 112.7710047 -258.92504883 112.23144531 C-247.61063231 112.00727415 -239.40041299 115.36493023 -230.08203125 121.75 C-228.78845703 120.93208984 -228.78845703 120.93208984 -227.46875 120.09765625 C-220.27745311 115.62660647 -212.9851723 111.56816054 -205.33203125 107.9375 C-204.20027466 107.3971814 -204.20027466 107.3971814 -203.0456543 106.84594727 C-179.77512503 96.00613814 -154.63484753 91.20147521 -129.08203125 91.75 C-128.98043701 90.93442627 -128.87884277 90.11885254 -128.77416992 89.27856445 C-127.60251223 80.45240694 -125.90127178 71.86229363 -123.91143799 63.19082642 C-123.01271432 59.27306402 -122.13240436 55.35115172 -121.25 51.4296875 C-121.06961182 50.63003067 -120.88922363 49.83037384 -120.70336914 49.00648499 C-118.49113428 39.17311341 -116.4166193 29.31092664 -114.34106445 19.44799805 C-113.81799276 16.96289745 -113.29210399 14.47838723 -112.76269531 11.99462891 C-112.34002938 9.97984046 -111.93277383 7.96167432 -111.54980469 5.93896484 C-110.23376895 -0.77768161 -110.23376895 -0.77768161 -107.08203125 -3.25 C-100.06120306 -4.07647086 -93.45956161 -2.17166973 -86.65441895 -0.54299927 C-83.22458744 0.27696273 -79.78782086 1.0668604 -76.3515625 1.859375 C-75.312845 2.09991859 -75.312845 2.09991859 -74.25314331 2.34532166 C-67.46945957 3.90857011 -60.6588858 5.32536864 -53.83203125 6.6875 C-52.7860376 6.89850342 -51.74004395 7.10950684 -50.66235352 7.3269043 C-45.41054501 8.3938923 -45.41054501 8.3938923 -40.08203125 8.75 C-38.38239388 7.1163888 -38.38239388 7.1163888 -36.76953125 5 C-26.55688428 -7.14360964 -13.21840701 -7.93600421 0 0 Z " fill="#FFFEFD" transform="translate(379.08203125,106.25)"/>
<path d="M0 0 C6.37252587 4.02287946 12.19486463 8.77214519 14.09765625 16.32421875 C15.01465791 24.21043301 15.23951399 31.60698192 10.71875 38.39453125 C5.82167267 44.2238233 -0.00217132 49.79802574 -7.8125 50.63671875 C-16.33907716 50.95584211 -23.59259029 50.06767355 -30.19140625 44.3359375 C-36.32460655 37.87935028 -38.94985252 32.30673452 -39.40234375 23.44921875 C-39.18188187 16.16479086 -36.91651968 10.66629667 -32.03515625 5.25390625 C-22.96701172 -3.17911532 -11.3227524 -5.85659607 0 0 Z " fill="#FF4602" transform="translate(326.90234375,258.67578125)"/>
<path d="M0 0 C5.6628516 4.00403648 9.55423903 9.32611965 11.70703125 15.9140625 C12.9172603 25.98992299 10.75332675 33.30454488 4.58203125 41.2265625 C-1.17263399 47.33479828 -7.68292734 49.10906097 -15.91796875 49.4140625 C-23.70017981 49.13090693 -28.38329387 46.88194841 -34.04296875 41.6640625 C-40.68009812 34.43460351 -42.03875896 28.430538 -41.734375 18.54296875 C-40.75070465 10.4559798 -36.55106259 5.35014697 -30.31640625 0.35546875 C-20.58657069 -6.57563032 -10.10692717 -5.58993875 0 0 Z " fill="#FF4602" transform="translate(212.29296875,260.0859375)"/>
<path d="M0 0 C2.47265625 1.57421875 2.47265625 1.57421875 5.0625 3.6875 C24.70281605 18.43724728 51.82040814 19.10516263 75.3125 15.875 C88.20208904 13.83330924 99.54074311 10.05550107 109.66796875 1.5390625 C112.40098862 -0.26463906 113.78773164 -0.44436379 117 0 C120.20093153 2.16279158 120.89428733 3.53310239 121.75 7.3125 C120.61489746 12.89342081 117.62561517 14.9208183 113 18 C102.92733859 24.08012982 92.40370079 27.37234412 81 30 C79.94683594 30.2475 78.89367187 30.495 77.80859375 30.75 C61.14213355 33.94569943 43.4483401 32.7406427 27 29 C25.44345703 28.70996094 25.44345703 28.70996094 23.85546875 28.4140625 C12.38067638 26.04844265 0.24221427 20.44324388 -8 12 C-9.42041821 9.15916359 -9.31452272 7.14522722 -9 4 C-6.33843305 0.25409095 -4.50701131 -0.56008182 0 0 Z " fill="#FF4906" transform="translate(200,341)"/>
</svg>
