<?xml version="1.0" encoding="UTF-8"?>
<svg version="1.1" xmlns="http://www.w3.org/2000/svg" width="512" height="512">
<path d="M0 0 C1.01790619 0.00215515 2.03581238 0.0043103 3.08456421 0.00653076 C17.69363523 0.05620146 32.02575853 0.30709809 46.375 3.3125 C47.34985352 3.51117676 48.32470703 3.70985352 49.32910156 3.91455078 C108.89482498 16.37463238 165.24866419 48.2648637 202.375 97.3125 C202.79023926 97.85132812 203.20547852 98.39015625 203.63330078 98.9453125 C228.13415115 130.81517547 244.62642134 167.36831241 252.6875 206.75 C252.83485596 207.46889404 252.98221191 208.18778809 253.1340332 208.9284668 C256.10789088 224.57475609 256.74800362 240.04818046 256.6875 255.9375 C256.68534485 256.95540619 256.6831897 257.97331238 256.68096924 259.02206421 C256.63129854 273.63113523 256.38040191 287.96325853 253.375 302.3125 C253.07698486 303.77478027 253.07698486 303.77478027 252.77294922 305.26660156 C242.52138226 354.27446698 220.18217348 398.27864199 185.375 434.3125 C184.77606934 434.93334473 184.17713867 435.55418945 183.56005859 436.19384766 C175.89623497 444.09500259 168.15501606 451.64016955 159.375 458.3125 C158.83472168 458.72918945 158.29444336 459.14587891 157.73779297 459.57519531 C125.8687531 484.07334707 89.31685217 500.56439938 49.9375 508.625 C49.21860596 508.77235596 48.49971191 508.91971191 47.7590332 509.0715332 C33.08339502 511.86090125 18.55831162 512.66142619 3.64770508 512.62817383 C0.70811513 512.6250221 -2.2304558 512.64854926 -5.16992188 512.67382812 C-18.54306192 512.71848737 -31.43916711 511.51301542 -44.625 509.3125 C-46.33055054 509.03031616 -46.33055054 509.03031616 -48.07055664 508.74243164 C-50.6662622 508.27617402 -53.23774939 507.7574418 -55.8125 507.1875 C-57.20142456 506.88054199 -57.20142456 506.88054199 -58.6184082 506.56738281 C-103.71300222 496.08183329 -144.40193368 473.34639441 -177.625 441.3125 C-178.58889648 440.38945068 -178.58889648 440.38945068 -179.57226562 439.44775391 C-188.74836539 430.62136647 -197.09816554 421.58141996 -204.625 411.3125 C-205.26211914 410.45857666 -205.26211914 410.45857666 -205.91210938 409.58740234 C-212.42768015 400.84658179 -218.26088547 391.80163672 -223.625 382.3125 C-224.0271875 381.60528809 -224.429375 380.89807617 -224.84375 380.16943359 C-237.8691741 357.03404164 -246.61801461 331.86287591 -251.9375 305.875 C-252.08485596 305.15610596 -252.23221191 304.43721191 -252.3840332 303.6965332 C-255.35789088 288.05024391 -255.99800362 272.57681954 -255.9375 256.6875 C-255.93534485 255.66959381 -255.9331897 254.65168762 -255.93096924 253.60293579 C-255.88129854 238.99386477 -255.63040191 224.66174147 -252.625 210.3125 C-252.42632324 209.33764648 -252.22764648 208.36279297 -252.02294922 207.35839844 C-241.90232806 158.9765226 -219.9858123 114.98821731 -185.625 79.3125 C-184.99287598 78.65314453 -184.36075195 77.99378906 -183.70947266 77.31445312 C-174.56502521 67.82619695 -165.26765991 59.0862956 -154.625 51.3125 C-153.47394983 50.45443848 -152.32290823 49.59636549 -151.171875 48.73828125 C-142.98224019 42.70072604 -134.47961724 37.31792698 -125.625 32.3125 C-124.91778809 31.9103125 -124.21057617 31.508125 -123.48193359 31.09375 C-100.34654164 18.0683259 -75.17537591 9.31948539 -49.1875 4 C-48.46860596 3.85264404 -47.74971191 3.70528809 -47.0090332 3.5534668 C-31.36274391 0.57960912 -15.88931954 -0.06050362 0 0 Z " fill="#FEFB00" transform="translate(255.625,-0.3125)"/>
<path d="M0 0 C11.50661607 10.25141638 19.18067254 23.89350347 21.07543945 39.22290039 C21.16366364 41.58364646 21.20602358 43.94644492 21.20825195 46.30883789 C21.20957123 46.96417511 21.2108905 47.61951233 21.21224976 48.29470825 C21.21414576 50.39582243 21.2078791 52.49680008 21.20043945 54.59790039 C21.19911011 55.66705688 21.19911011 55.66705688 21.19775391 56.7578125 C21.18234736 67.27337114 20.95959379 77.7393561 20.07543945 88.22290039 C26.39213931 90.12866872 34.899469 90.69622222 40.88793945 87.66040039 C45.24369404 85.69604048 47.4500425 86.1436411 52.07543945 87.22290039 C54.13793945 88.53540039 54.13793945 88.53540039 55.07543945 90.22290039 C55.07543945 92.16040039 55.07543945 92.16040039 54.07543945 94.22290039 C49.36600607 98.72160038 43.87581749 100.34229861 37.8449707 102.40258789 C31.78187833 104.60364327 26.32703699 107.50307169 22.89233398 113.17749023 C20.84496393 118.30386989 22.59057064 123.01717608 24.54418945 127.87524414 C33.60481998 147.67954166 48.98449923 165.1579235 69.68481445 173.05493164 C73.78510722 174.54144133 77.91714495 175.90818213 82.07543945 177.22290039 C81.09744505 179.74149888 80.47360054 180.98733496 78.11450195 182.38305664 C70.7078875 185.15154845 63.20221685 187.28047808 55.41918945 188.71118164 C54.62512695 188.85942383 53.83106445 189.00766602 53.01293945 189.16040039 C51.97459961 189.32862305 51.97459961 189.32862305 50.9152832 189.50024414 C48.28982888 190.53147355 47.49307998 191.79906098 46.07543945 194.22290039 C45.07746544 197.25224022 45.07746544 197.25224022 44.38793945 200.47290039 C44.01088867 202.08938477 44.01088867 202.08938477 43.6262207 203.73852539 C43.35358398 204.96829102 43.35358398 204.96829102 43.07543945 206.22290039 C36.62767179 206.34932721 36.62767179 206.34932721 33.94262695 205.73461914 C12.87349055 201.97432368 -1.06284766 208.92327022 -18.01049805 220.29321289 C-31.52188803 229.23628191 -43.88064628 230.84606726 -59.92456055 229.22290039 C-64.46170829 228.21679513 -67.97401597 226.64148663 -71.92456055 224.22290039 C-72.47370117 223.8904834 -73.0228418 223.55806641 -73.58862305 223.21557617 C-78.78555473 220.04333015 -83.84257499 216.67609836 -88.8347168 213.19165039 C-103.77696386 203.04382217 -121.59379783 203.91213203 -138.92456055 206.22290039 C-139.2390918 205.16329102 -139.55362305 204.10368164 -139.87768555 203.01196289 C-140.309175 201.62369247 -140.74151098 200.23568495 -141.17456055 198.84790039 C-141.37952148 198.14922852 -141.58448242 197.45055664 -141.7956543 196.73071289 C-143.00006698 192.80881822 -143.00006698 192.80881822 -145.68237305 189.83618164 C-148.62343854 189.03174387 -151.55664026 188.37270293 -154.54956055 187.78540039 C-171.8802308 184.18235044 -171.8802308 184.18235044 -177.92456055 179.22290039 C-178.25456055 178.23290039 -178.58456055 177.24290039 -178.92456055 176.22290039 C-177.49176758 175.89418945 -177.49176758 175.89418945 -176.0300293 175.55883789 C-154.24991663 170.31882896 -137.97893914 156.84381093 -126.1315918 137.97290039 C-121.71981139 130.64428682 -116.78503428 122.04406195 -118.92456055 113.22290039 C-123.44330683 105.73872685 -130.66875258 103.67595941 -138.54956055 100.72290039 C-147.57634626 97.28412488 -147.57634626 97.28412488 -150.92456055 94.22290039 C-151.61206055 91.66040039 -151.61206055 91.66040039 -150.92456055 89.22290039 C-148.26567611 86.87682589 -146.73046637 86.18626831 -143.17456055 86.34790039 C-140.54216597 87.05662201 -138.05134147 87.87549426 -135.48706055 88.78540039 C-128.25868557 91.24329004 -123.65168695 90.24291676 -116.92456055 87.22290039 C-116.93122238 86.64011322 -116.93788422 86.05732605 -116.94474792 85.45687866 C-117.01175359 79.3236042 -117.05662807 73.19043574 -117.08935547 67.05688477 C-117.10432794 64.77591724 -117.12471312 62.49497792 -117.15087891 60.21411133 C-117.3980069 38.0985787 -116.15752983 21.26898054 -100.15893555 4.46508789 C-99.4215918 3.72516602 -98.68424805 2.98524414 -97.92456055 2.22290039 C-97.3109668 1.58610352 -96.69737305 0.94930664 -96.06518555 0.29321289 C-71.41535821 -23.40854416 -25.41050999 -21.07222643 0 0 Z " fill="#FEFEFE" transform="translate(303.924560546875,148.777099609375)"/>
<path d="M0 0 C13.46199775 11.52311755 23.85899149 26.1855173 25.6875 44.1875 C26.50663982 59.82156979 25.8572553 75.5837998 24.6875 91.1875 C26.41780291 90.90265154 28.14670714 90.60930062 29.875 90.3125 C30.83792969 90.15007812 31.80085937 89.98765625 32.79296875 89.8203125 C35.68008793 89.27646999 35.68008793 89.27646999 38.2421875 88.140625 C42.34432658 86.54170817 46.35694287 86.61148038 50.6875 87.1875 C54.125 89 54.125 89 56.6875 91.1875 C57.30625 91.64125 57.925 92.095 58.5625 92.5625 C60.44822673 95.28632749 60.24731923 96.95298891 59.6875 100.1875 C54.41390901 109.11203859 44.97925734 111.56790698 35.73828125 114.84375 C32.42265988 116.30415173 30.18952636 117.55473713 27.6875 120.1875 C26.09253141 125.25137365 26.76085712 128.41467286 29.03759766 132.98461914 C29.39644043 133.64969482 29.7552832 134.31477051 30.125 135 C30.48899902 135.69923584 30.85299805 136.39847168 31.22802734 137.11889648 C34.40933038 143.04706656 38.2321862 148.1506505 42.6875 153.1875 C43.16574219 153.80753906 43.64398438 154.42757812 44.13671875 155.06640625 C53.39844776 166.92885 67.91340261 173.45789064 82.0703125 177.328125 C84.6875 178.1875 84.6875 178.1875 86.6875 180.1875 C87.25 183.4375 87.25 183.4375 86.6875 187.1875 C82.51361608 192.29466978 77.0909908 194.5839757 70.9375 196.4375 C70.15197754 196.68709473 69.36645508 196.93668945 68.55712891 197.19384766 C62.68205228 199.01223757 56.79545079 200.40718911 50.6875 201.1875 C50.49414062 202.00734375 50.30078125 202.8271875 50.1015625 203.671875 C49.84117187 204.74953125 49.58078125 205.8271875 49.3125 206.9375 C49.05726563 208.00484375 48.80203125 209.0721875 48.5390625 210.171875 C47.80672911 212.76527581 47.08964104 214.89697952 45.6875 217.1875 C42.2248095 218.91884525 37.60690708 218.71064521 33.87719727 217.6940918 C29.50239818 216.68197137 24.97073198 216.91725645 20.5 216.875 C19.49646484 216.84599609 18.49292969 216.81699219 17.45898438 216.78710938 C8.23883961 216.70912507 1.92979282 219.46585853 -5.6875 224.5 C-6.61433594 225.10199219 -7.54117188 225.70398438 -8.49609375 226.32421875 C-10.34718197 227.5488638 -12.1937023 228.78044674 -14.03515625 230.01953125 C-29.83969546 240.45734923 -45.71125046 243.70194966 -64.51757812 240.85351562 C-73.45069964 238.72382862 -81.18823253 232.5354916 -88.60693359 227.359375 C-98.32211917 220.68418308 -105.94714728 216.66897717 -117.8125 216.9375 C-118.72386719 216.94265625 -119.63523437 216.9478125 -120.57421875 216.953125 C-125.57568822 217.01086202 -130.36661085 217.37975428 -135.3125 218.1875 C-138.22063457 218.52905943 -140.33087564 218.48566244 -143.3125 218.1875 C-145.99550578 214.6809337 -147.01670898 211.13592774 -148 206.875 C-148.25136719 205.80636719 -148.50273437 204.73773438 -148.76171875 203.63671875 C-149.03435547 202.42435547 -149.03435547 202.42435547 -149.3125 201.1875 C-150.31667969 201.02894531 -151.32085937 200.87039063 -152.35546875 200.70703125 C-175.88736156 196.78263915 -175.88736156 196.78263915 -184.19921875 188.80078125 C-185.3125 187.1875 -185.3125 187.1875 -185.9375 183.5 C-185.27426834 179.98487218 -185.04341536 179.27584704 -182.3125 177.1875 C-179.88671875 176.484375 -179.88671875 176.484375 -177 175.9375 C-158.26886436 171.51424387 -143.55648786 159.1744669 -133.3125 143.1875 C-128.87769312 135.96818384 -124.63256998 128.86713841 -126.3125 120.1875 C-130.82566094 115.59469505 -136.61705035 114.00824304 -142.54296875 111.91992188 C-148.30910837 109.80244035 -153.97936918 107.33215458 -157.75 102.25 C-158.55114318 99.31247502 -158.74632044 97.22424306 -158.3125 94.1875 C-155.75137151 91.05723184 -153.20326119 88.44627568 -149.3125 87.1875 C-144.03042633 86.65929263 -139.93720487 87.76356636 -135.03515625 89.53125 C-132.55709533 90.12854445 -130.66578119 90.25554049 -128.14233398 90.22851562 C-126.87848877 90.21498047 -125.61464355 90.20144531 -124.3125 90.1875 C-124.33344727 88.8778125 -124.35439453 87.568125 -124.37597656 86.21875 C-124.44927136 81.28364323 -124.49461991 76.34858282 -124.53222656 71.41308594 C-124.55214078 69.29125841 -124.57928222 67.16948427 -124.61425781 65.04785156 C-124.96818795 43.00008585 -122.19127834 25.41890569 -107.3125 8.1875 C-106.72984375 7.50945312 -106.1471875 6.83140625 -105.546875 6.1328125 C-79.54450712 -21.94537466 -29.5538522 -22.54107371 0 0 Z M-104.17578125 12.63671875 C-115.34549906 25.97095226 -118.49425167 38.71488708 -118.41015625 55.58984375 C-118.4087413 56.66754532 -118.40732635 57.74524689 -118.40586853 58.85560608 C-118.40029611 62.27876629 -118.38774868 65.70185975 -118.375 69.125 C-118.36998144 71.45377509 -118.36541915 73.78255122 -118.36132812 76.11132812 C-118.35033571 81.80340798 -118.33362514 87.49544922 -118.3125 93.1875 C-124.25828338 95.84337717 -128.4455062 97.54235914 -134.98828125 95.25 C-136.41720703 94.693125 -136.41720703 94.693125 -137.875 94.125 C-142.10848372 92.48154884 -144.86525616 91.63096466 -149.3125 93.1875 C-150.7975 94.1775 -150.7975 94.1775 -152.3125 95.1875 C-152.90642441 97.64455046 -152.90642441 97.64455046 -152.3125 100.1875 C-146.76247938 105.50733544 -138.56977592 107.56438825 -131.46875 109.96484375 C-126.27782674 111.97568407 -123.413037 114.5366945 -120.3125 119.1875 C-118.90767861 131.83089247 -125.97015244 142.42416217 -133.3125 152.1875 C-136.16345929 155.68157089 -139.15160697 158.97210882 -142.3125 162.1875 C-142.99828125 162.88617188 -143.6840625 163.58484375 -144.390625 164.3046875 C-154.81693728 174.22899215 -166.43282534 179.23272332 -180.3125 182.1875 C-178.46634319 186.86244546 -175.61036416 187.96418773 -171.2265625 190.0234375 C-165.50935222 192.30725608 -159.53502706 193.76336822 -153.43359375 194.56640625 C-150.91372378 194.91485988 -148.68607011 195.27065037 -146.3125 196.1875 C-144.62467797 198.85534772 -144.03721919 200.25568147 -143.3125 203.1875 C-142.75777654 204.83597065 -142.19519034 206.48181511 -141.625 208.125 C-141.18447995 209.47818724 -140.74588746 210.83201156 -140.3125 212.1875 C-139.075 212.0225 -137.8375 211.8575 -136.5625 211.6875 C-118.15696681 209.90462784 -102.84145095 210.34850068 -87.3125 221.1875 C-82.71956363 224.31020711 -78.06376786 227.31136573 -73.3125 230.1875 C-72.405 230.74308594 -71.4975 231.29867187 -70.5625 231.87109375 C-59.88942413 237.34725041 -46.30967539 236.54518038 -34.74609375 234.58203125 C-25.88149756 231.69011905 -18.0942036 225.71898867 -10.44335938 220.53295898 C-0.24087271 213.61888428 7.38382121 211.00900574 19.6875 211.0625 C21.02167969 211.05669922 21.02167969 211.05669922 22.3828125 211.05078125 C26.65407562 211.05715627 30.50253166 211.29678039 34.6875 212.1875 C37.02051986 212.22574623 39.35461508 212.23324284 41.6875 212.1875 C41.92984375 211.21167969 42.1721875 210.23585938 42.421875 209.23046875 C42.75703125 207.95816406 43.0921875 206.68585938 43.4375 205.375 C43.76234375 204.11042969 44.0871875 202.84585938 44.421875 201.54296875 C45.7733613 197.95986155 46.31310784 196.86321855 49.6875 195.1875 C52.9375 194.37890625 52.9375 194.37890625 56.6875 193.75 C69.59750802 191.58868793 69.59750802 191.58868793 80.6875 185.1875 C80.6875 184.5275 80.6875 183.8675 80.6875 183.1875 C78.82158203 182.55134766 78.82158203 182.55134766 76.91796875 181.90234375 C52.87793692 173.51746691 36.31578377 159.49866108 24.625 136.875 C19.88321107 126.84083526 19.88321107 126.84083526 20.6875 121.1875 C25.20461668 111.97953138 33.46549213 109.49738373 42.47070312 106.1875 C48.84852247 103.83539253 48.84852247 103.83539253 53.6875 99.1875 C53.92651711 97.05842681 53.92651711 97.05842681 52.6875 95.1875 C49.66760529 92.61170745 48.18218503 92.16099902 44.1875 92.375 C40.8225701 93.03713028 40.8225701 93.03713028 38.37890625 94.2265625 C35.15373769 95.37807406 32.54239169 95.41855887 29.125 95.375 C27.45244141 95.36533203 27.45244141 95.36533203 25.74609375 95.35546875 C23.21190541 95.21629876 21.10058007 94.92499391 18.6875 94.1875 C18.7596875 93.3315625 18.831875 92.475625 18.90625 91.59375 C19.58940817 82.10544208 19.8507901 72.6178014 19.91967773 63.10693359 C19.93139038 61.7222748 19.94832325 60.3376485 19.97094727 58.953125 C20.29327478 37.99929825 14.84908527 23.4214495 0.73828125 8.06640625 C-12.37152584 -4.74374811 -31.11882351 -10.12678898 -49.0625 -10.1875 C-71.00458969 -9.80482749 -88.74127284 -3.40741118 -104.17578125 12.63671875 Z " fill="#0B0B05" transform="translate(305.3125,142.8125)"/>
</svg>
