<?xml version="1.0" encoding="UTF-8"?>
<svg version="1.1" xmlns="http://www.w3.org/2000/svg" width="512" height="512">
<path d="M0 0 C1.01790619 0.00215515 2.03581238 0.0043103 3.08456421 0.00653076 C17.69363523 0.05620146 32.02575853 0.30709809 46.375 3.3125 C47.34985352 3.51117676 48.32470703 3.70985352 49.32910156 3.91455078 C97.7109774 14.03517194 141.69928269 35.9516877 177.375 70.3125 C178.3640332 71.26068604 178.3640332 71.26068604 179.37304688 72.22802734 C188.86130305 81.37247479 197.6012044 90.66984009 205.375 101.3125 C206.23306152 102.46355017 207.09113451 103.61459177 207.94921875 104.765625 C213.98736829 112.95680614 219.34595521 121.47054105 224.375 130.3125 C224.73948242 130.94430176 225.10396484 131.57610352 225.47949219 132.22705078 C247.08534998 169.97532572 256.85198095 212.74189997 256.6875 255.9375 C256.68534485 256.95540619 256.6831897 257.97331238 256.68096924 259.02206421 C256.63129854 273.63113523 256.38040191 287.96325853 253.375 302.3125 C253.07698486 303.77478027 253.07698486 303.77478027 252.77294922 305.26660156 C242.65232806 353.6484774 220.7358123 397.63678269 186.375 433.3125 C185.74287598 433.97185547 185.11075195 434.63121094 184.45947266 435.31054688 C175.31502521 444.79880305 166.01765991 453.5387044 155.375 461.3125 C154.22394983 462.17056152 153.07290823 463.02863451 151.921875 463.88671875 C143.73224019 469.92427396 135.22961724 475.30707302 126.375 480.3125 C125.66778809 480.7146875 124.96057617 481.116875 124.23193359 481.53125 C101.09654164 494.5566741 75.92537591 503.30551461 49.9375 508.625 C49.21860596 508.77235596 48.49971191 508.91971191 47.7590332 509.0715332 C33.08339502 511.86090125 18.55831162 512.66142619 3.64770508 512.62817383 C0.70811513 512.6250221 -2.2304558 512.64854926 -5.16992188 512.67382812 C-18.54306192 512.71848737 -31.43916711 511.51301542 -44.625 509.3125 C-46.33055054 509.03031616 -46.33055054 509.03031616 -48.07055664 508.74243164 C-91.33802759 500.97044532 -132.38793216 480.98345309 -165.625 452.3125 C-166.37007813 451.67828125 -167.11515625 451.0440625 -167.8828125 450.390625 C-181.38779833 438.57948485 -194.05918743 425.82889772 -204.625 411.3125 C-205.48149066 410.16255169 -206.33826433 409.01281411 -207.1953125 407.86328125 C-213.23534209 399.67315742 -218.61867614 391.16870382 -223.625 382.3125 C-224.0271875 381.60528809 -224.429375 380.89807617 -224.84375 380.16943359 C-237.8691741 357.03404164 -246.61801461 331.86287591 -251.9375 305.875 C-252.08485596 305.15610596 -252.23221191 304.43721191 -252.3840332 303.6965332 C-255.35789088 288.05024391 -255.99800362 272.57681954 -255.9375 256.6875 C-255.93534485 255.66959381 -255.9331897 254.65168762 -255.93096924 253.60293579 C-255.88129854 238.99386477 -255.63040191 224.66174147 -252.625 210.3125 C-252.42632324 209.33764648 -252.22764648 208.36279297 -252.02294922 207.35839844 C-241.90232806 158.9765226 -219.9858123 114.98821731 -185.625 79.3125 C-184.99287598 78.65314453 -184.36075195 77.99378906 -183.70947266 77.31445312 C-174.56502521 67.82619695 -165.26765991 59.0862956 -154.625 51.3125 C-153.47394983 50.45443848 -152.32290823 49.59636549 -151.171875 48.73828125 C-142.98224019 42.70072604 -134.47961724 37.31792698 -125.625 32.3125 C-124.91778809 31.9103125 -124.21057617 31.508125 -123.48193359 31.09375 C-100.34654164 18.0683259 -75.17537591 9.31948539 -49.1875 4 C-48.46860596 3.85264404 -47.74971191 3.70528809 -47.0090332 3.5534668 C-31.36274391 0.57960912 -15.88931954 -0.06050362 0 0 Z " fill="#03A9F4" transform="translate(255.625,-0.3125)"/>
<path d="M0 0 C2.328125 1.71484375 2.328125 1.71484375 5.015625 4.65234375 C7.78486382 7.1222054 9.40909483 7.07567087 13.02954102 6.9753418 C17.21147033 6.50140461 21.0208107 5.10095072 24.953125 3.65234375 C26.25612549 3.18622681 26.25612549 3.18622681 27.58544922 2.71069336 C34.24610435 0.26558835 40.52291324 -2.65413113 46.7734375 -6 C49.328125 -7.28515625 49.328125 -7.28515625 51.328125 -7.28515625 C47.33170018 7.05495633 37.89595469 19.6928248 25.328125 27.71484375 C35.67270649 27.4737624 45.66299326 24.63667321 55.1171875 20.4921875 C57.328125 19.71484375 57.328125 19.71484375 60.328125 20.71484375 C54.93602128 28.23841435 49.1848597 35.15757435 42.640625 41.71484375 C41.71527954 42.64792358 41.71527954 42.64792358 40.77124023 43.59985352 C37.77431827 46.55199159 35.10659785 48.86014087 31.4140625 50.8828125 C28.99737857 52.55587529 28.41434273 53.33772763 27.74975586 56.24462891 C27.5508152 59.52251402 27.56650094 62.74431361 27.640625 66.02734375 C27.24188026 116.74631158 5.68503555 165.63319418 -29.671875 201.71484375 C-30.72955078 202.83052734 -30.72955078 202.83052734 -31.80859375 203.96875 C-48.28980499 221.05170932 -69.0817892 233.27086667 -90.671875 242.71484375 C-91.74824219 243.18792969 -92.82460938 243.66101563 -93.93359375 244.1484375 C-139.50678037 262.87954237 -194.20359626 261.0318542 -239.41552734 242.67382812 C-249.11243072 238.55248681 -259.00751925 233.73407166 -267.671875 227.71484375 C-267.671875 227.38484375 -267.671875 227.05484375 -267.671875 226.71484375 C-266.68513794 226.69296997 -266.68513794 226.69296997 -265.6784668 226.6706543 C-230.65958371 225.80881032 -200.55789615 219.23358948 -171.671875 198.71484375 C-172.8578125 198.51890625 -174.04375 198.32296875 -175.265625 198.12109375 C-196.34810346 194.34846277 -213.08007211 185.59494454 -225.7578125 167.75390625 C-232.671875 156.77606824 -232.671875 156.77606824 -232.671875 150.71484375 C-232.03161377 150.72008057 -231.39135254 150.72531738 -230.73168945 150.73071289 C-227.81592805 150.75156804 -224.90018238 150.76453104 -221.984375 150.77734375 C-220.97697266 150.78572266 -219.96957031 150.79410156 -218.93164062 150.80273438 C-217.95517578 150.80595703 -216.97871094 150.80917969 -215.97265625 150.8125 C-215.07716064 150.81773682 -214.18166504 150.82297363 -213.2590332 150.82836914 C-210.63545741 150.71324573 -208.22894447 150.2971866 -205.671875 149.71484375 C-206.27773437 149.48410156 -206.88359375 149.25335938 -207.5078125 149.015625 C-218.1651687 144.86745405 -227.01621103 140.286719 -235.671875 132.71484375 C-236.61353516 131.91626953 -236.61353516 131.91626953 -237.57421875 131.1015625 C-247.71032997 121.83885769 -254.9670573 107.30010979 -256.671875 93.71484375 C-256.73575888 91.75744182 -256.75825669 89.79814228 -256.734375 87.83984375 C-256.72535156 86.87304688 -256.71632813 85.90625 -256.70703125 84.91015625 C-256.69542969 84.18570313 -256.68382812 83.46125 -256.671875 82.71484375 C-256.14980469 82.89660156 -255.62773437 83.07835937 -255.08984375 83.265625 C-250.77052879 84.74069754 -246.43014543 86.12919466 -242.046875 87.40234375 C-241.18835938 87.65371094 -240.32984375 87.90507812 -239.4453125 88.1640625 C-236.14224536 88.82002372 -233.03081192 88.8019273 -229.671875 88.71484375 C-230.36152344 88.15539062 -231.05117187 87.5959375 -231.76171875 87.01953125 C-244.92623593 75.78725459 -254.57533493 60.1936072 -256.671875 42.71484375 C-257.56015278 27.15290028 -255.5529724 13.41111982 -247.671875 -0.28515625 C-244.60749078 2.75466376 -241.58832964 5.83258322 -238.58984375 8.9375 C-228.91126383 18.88530042 -219.20710232 27.97178273 -207.671875 35.71484375 C-207.01622559 36.15618652 -206.36057617 36.5975293 -205.68505859 37.05224609 C-176.10820151 56.71483101 -143.1084158 67.62610456 -107.671875 69.71484375 C-107.83042969 68.92078125 -107.98898438 68.12671875 -108.15234375 67.30859375 C-111.02515661 47.43650477 -107.10466608 30.37425083 -95.640625 13.7734375 C-71.76003474 -17.33189655 -31.54274599 -20.59290703 0 0 Z " fill="#FEFEFE" transform="translate(360.671875,134.28515625)"/>
</svg>
